%TF.GenerationSoftware,KiCad,Pcbnew,5.1.6-c6e7f7d~86~ubuntu18.04.1*%
%TF.CreationDate,2020-08-11T11:54:55-04:00*%
%TF.ProjectId,cabletester,6361626c-6574-4657-9374-65722e6b6963,rev?*%
%TF.SameCoordinates,Original*%
%TF.FileFunction,Legend,Top*%
%TF.FilePolarity,Positive*%
%FSLAX46Y46*%
G04 Gerber Fmt 4.6, Leading zero omitted, Abs format (unit mm)*
G04 Created by KiCad (PCBNEW 5.1.6-c6e7f7d~86~ubuntu18.04.1) date 2020-08-11 11:54:55*
%MOMM*%
%LPD*%
G01*
G04 APERTURE LIST*
%ADD10C,0.125000*%
%ADD11C,0.100000*%
%ADD12C,0.200000*%
%ADD13C,0.120000*%
%ADD14C,0.150000*%
G04 APERTURE END LIST*
D10*
X124625000Y-76821428D02*
X124375000Y-76821428D01*
X124375000Y-77214285D02*
X124375000Y-76464285D01*
X124732142Y-76464285D01*
X125017857Y-77214285D02*
X125017857Y-76714285D01*
X125017857Y-76464285D02*
X124982142Y-76500000D01*
X125017857Y-76535714D01*
X125053571Y-76500000D01*
X125017857Y-76464285D01*
X125017857Y-76535714D01*
X125267857Y-76714285D02*
X125553571Y-76714285D01*
X125375000Y-76464285D02*
X125375000Y-77107142D01*
X125410714Y-77178571D01*
X125482142Y-77214285D01*
X125553571Y-77214285D01*
X126482142Y-77214285D02*
X126410714Y-77178571D01*
X126375000Y-77142857D01*
X126339285Y-77071428D01*
X126339285Y-76857142D01*
X126375000Y-76785714D01*
X126410714Y-76750000D01*
X126482142Y-76714285D01*
X126589285Y-76714285D01*
X126660714Y-76750000D01*
X126696428Y-76785714D01*
X126732142Y-76857142D01*
X126732142Y-77071428D01*
X126696428Y-77142857D01*
X126660714Y-77178571D01*
X126589285Y-77214285D01*
X126482142Y-77214285D01*
X127053571Y-76714285D02*
X127053571Y-77214285D01*
X127053571Y-76785714D02*
X127089285Y-76750000D01*
X127160714Y-76714285D01*
X127267857Y-76714285D01*
X127339285Y-76750000D01*
X127375000Y-76821428D01*
X127375000Y-77214285D01*
X128017857Y-77178571D02*
X127946428Y-77214285D01*
X127803571Y-77214285D01*
X127732142Y-77178571D01*
X127696428Y-77107142D01*
X127696428Y-76821428D01*
X127732142Y-76750000D01*
X127803571Y-76714285D01*
X127946428Y-76714285D01*
X128017857Y-76750000D01*
X128053571Y-76821428D01*
X128053571Y-76892857D01*
X127696428Y-76964285D01*
X129053571Y-77214285D02*
X128982142Y-77178571D01*
X128946428Y-77142857D01*
X128910714Y-77071428D01*
X128910714Y-76857142D01*
X128946428Y-76785714D01*
X128982142Y-76750000D01*
X129053571Y-76714285D01*
X129160714Y-76714285D01*
X129232142Y-76750000D01*
X129267857Y-76785714D01*
X129303571Y-76857142D01*
X129303571Y-77071428D01*
X129267857Y-77142857D01*
X129232142Y-77178571D01*
X129160714Y-77214285D01*
X129053571Y-77214285D01*
X129517857Y-76714285D02*
X129803571Y-76714285D01*
X129625000Y-77214285D02*
X129625000Y-76571428D01*
X129660714Y-76500000D01*
X129732142Y-76464285D01*
X129803571Y-76464285D01*
X130839285Y-76464285D02*
X130839285Y-77000000D01*
X130803571Y-77107142D01*
X130732142Y-77178571D01*
X130625000Y-77214285D01*
X130553571Y-77214285D01*
X131553571Y-76464285D02*
X131196428Y-76464285D01*
X131160714Y-76821428D01*
X131196428Y-76785714D01*
X131267857Y-76750000D01*
X131446428Y-76750000D01*
X131517857Y-76785714D01*
X131553571Y-76821428D01*
X131589285Y-76892857D01*
X131589285Y-77071428D01*
X131553571Y-77142857D01*
X131517857Y-77178571D01*
X131446428Y-77214285D01*
X131267857Y-77214285D01*
X131196428Y-77178571D01*
X131160714Y-77142857D01*
X131946428Y-77178571D02*
X131946428Y-77214285D01*
X131910714Y-77285714D01*
X131875000Y-77321428D01*
X133625000Y-76464285D02*
X133625000Y-77000000D01*
X133589285Y-77107142D01*
X133517857Y-77178571D01*
X133410714Y-77214285D01*
X133339285Y-77214285D01*
X134303571Y-76464285D02*
X134160714Y-76464285D01*
X134089285Y-76500000D01*
X134053571Y-76535714D01*
X133982142Y-76642857D01*
X133946428Y-76785714D01*
X133946428Y-77071428D01*
X133982142Y-77142857D01*
X134017857Y-77178571D01*
X134089285Y-77214285D01*
X134232142Y-77214285D01*
X134303571Y-77178571D01*
X134339285Y-77142857D01*
X134375000Y-77071428D01*
X134375000Y-76892857D01*
X134339285Y-76821428D01*
X134303571Y-76785714D01*
X134232142Y-76750000D01*
X134089285Y-76750000D01*
X134017857Y-76785714D01*
X133982142Y-76821428D01*
X133946428Y-76892857D01*
X135589285Y-77214285D02*
X135589285Y-76464285D01*
X135589285Y-77178571D02*
X135517857Y-77214285D01*
X135375000Y-77214285D01*
X135303571Y-77178571D01*
X135267857Y-77142857D01*
X135232142Y-77071428D01*
X135232142Y-76857142D01*
X135267857Y-76785714D01*
X135303571Y-76750000D01*
X135375000Y-76714285D01*
X135517857Y-76714285D01*
X135589285Y-76750000D01*
X136232142Y-77178571D02*
X136160714Y-77214285D01*
X136017857Y-77214285D01*
X135946428Y-77178571D01*
X135910714Y-77107142D01*
X135910714Y-76821428D01*
X135946428Y-76750000D01*
X136017857Y-76714285D01*
X136160714Y-76714285D01*
X136232142Y-76750000D01*
X136267857Y-76821428D01*
X136267857Y-76892857D01*
X135910714Y-76964285D01*
X136589285Y-76714285D02*
X136589285Y-77464285D01*
X136589285Y-76750000D02*
X136660714Y-76714285D01*
X136803571Y-76714285D01*
X136875000Y-76750000D01*
X136910714Y-76785714D01*
X136946428Y-76857142D01*
X136946428Y-77071428D01*
X136910714Y-77142857D01*
X136875000Y-77178571D01*
X136803571Y-77214285D01*
X136660714Y-77214285D01*
X136589285Y-77178571D01*
X137553571Y-77178571D02*
X137482142Y-77214285D01*
X137339285Y-77214285D01*
X137267857Y-77178571D01*
X137232142Y-77107142D01*
X137232142Y-76821428D01*
X137267857Y-76750000D01*
X137339285Y-76714285D01*
X137482142Y-76714285D01*
X137553571Y-76750000D01*
X137589285Y-76821428D01*
X137589285Y-76892857D01*
X137232142Y-76964285D01*
X137910714Y-76714285D02*
X137910714Y-77214285D01*
X137910714Y-76785714D02*
X137946428Y-76750000D01*
X138017857Y-76714285D01*
X138125000Y-76714285D01*
X138196428Y-76750000D01*
X138232142Y-76821428D01*
X138232142Y-77214285D01*
X138910714Y-77214285D02*
X138910714Y-76464285D01*
X138910714Y-77178571D02*
X138839285Y-77214285D01*
X138696428Y-77214285D01*
X138625000Y-77178571D01*
X138589285Y-77142857D01*
X138553571Y-77071428D01*
X138553571Y-76857142D01*
X138589285Y-76785714D01*
X138625000Y-76750000D01*
X138696428Y-76714285D01*
X138839285Y-76714285D01*
X138910714Y-76750000D01*
X139267857Y-77214285D02*
X139267857Y-76714285D01*
X139267857Y-76464285D02*
X139232142Y-76500000D01*
X139267857Y-76535714D01*
X139303571Y-76500000D01*
X139267857Y-76464285D01*
X139267857Y-76535714D01*
X139625000Y-76714285D02*
X139625000Y-77214285D01*
X139625000Y-76785714D02*
X139660714Y-76750000D01*
X139732142Y-76714285D01*
X139839285Y-76714285D01*
X139910714Y-76750000D01*
X139946428Y-76821428D01*
X139946428Y-77214285D01*
X140625000Y-76714285D02*
X140625000Y-77321428D01*
X140589285Y-77392857D01*
X140553571Y-77428571D01*
X140482142Y-77464285D01*
X140375000Y-77464285D01*
X140303571Y-77428571D01*
X140625000Y-77178571D02*
X140553571Y-77214285D01*
X140410714Y-77214285D01*
X140339285Y-77178571D01*
X140303571Y-77142857D01*
X140267857Y-77071428D01*
X140267857Y-76857142D01*
X140303571Y-76785714D01*
X140339285Y-76750000D01*
X140410714Y-76714285D01*
X140553571Y-76714285D01*
X140625000Y-76750000D01*
X128375000Y-78464285D02*
X128303571Y-78428571D01*
X128267857Y-78392857D01*
X128232142Y-78321428D01*
X128232142Y-78107142D01*
X128267857Y-78035714D01*
X128303571Y-78000000D01*
X128375000Y-77964285D01*
X128482142Y-77964285D01*
X128553571Y-78000000D01*
X128589285Y-78035714D01*
X128625000Y-78107142D01*
X128625000Y-78321428D01*
X128589285Y-78392857D01*
X128553571Y-78428571D01*
X128482142Y-78464285D01*
X128375000Y-78464285D01*
X128946428Y-77964285D02*
X128946428Y-78464285D01*
X128946428Y-78035714D02*
X128982142Y-78000000D01*
X129053571Y-77964285D01*
X129160714Y-77964285D01*
X129232142Y-78000000D01*
X129267857Y-78071428D01*
X129267857Y-78464285D01*
X130339285Y-77714285D02*
X130482142Y-77714285D01*
X130553571Y-77750000D01*
X130625000Y-77821428D01*
X130660714Y-77964285D01*
X130660714Y-78214285D01*
X130625000Y-78357142D01*
X130553571Y-78428571D01*
X130482142Y-78464285D01*
X130339285Y-78464285D01*
X130267857Y-78428571D01*
X130196428Y-78357142D01*
X130160714Y-78214285D01*
X130160714Y-77964285D01*
X130196428Y-77821428D01*
X130267857Y-77750000D01*
X130339285Y-77714285D01*
X131339285Y-78464285D02*
X130982142Y-78464285D01*
X130982142Y-77714285D01*
X131589285Y-78071428D02*
X131839285Y-78071428D01*
X131946428Y-78464285D02*
X131589285Y-78464285D01*
X131589285Y-77714285D01*
X131946428Y-77714285D01*
X132267857Y-78464285D02*
X132267857Y-77714285D01*
X132446428Y-77714285D01*
X132553571Y-77750000D01*
X132625000Y-77821428D01*
X132660714Y-77892857D01*
X132696428Y-78035714D01*
X132696428Y-78142857D01*
X132660714Y-78285714D01*
X132625000Y-78357142D01*
X132553571Y-78428571D01*
X132446428Y-78464285D01*
X132267857Y-78464285D01*
X133589285Y-77964285D02*
X133589285Y-78714285D01*
X133589285Y-78000000D02*
X133660714Y-77964285D01*
X133803571Y-77964285D01*
X133875000Y-78000000D01*
X133910714Y-78035714D01*
X133946428Y-78107142D01*
X133946428Y-78321428D01*
X133910714Y-78392857D01*
X133875000Y-78428571D01*
X133803571Y-78464285D01*
X133660714Y-78464285D01*
X133589285Y-78428571D01*
X134267857Y-78464285D02*
X134267857Y-77964285D01*
X134267857Y-77714285D02*
X134232142Y-77750000D01*
X134267857Y-77785714D01*
X134303571Y-77750000D01*
X134267857Y-77714285D01*
X134267857Y-77785714D01*
X134625000Y-77964285D02*
X134625000Y-78464285D01*
X134625000Y-78035714D02*
X134660714Y-78000000D01*
X134732142Y-77964285D01*
X134839285Y-77964285D01*
X134910714Y-78000000D01*
X134946428Y-78071428D01*
X134946428Y-78464285D01*
X135410714Y-78464285D02*
X135339285Y-78428571D01*
X135303571Y-78392857D01*
X135267857Y-78321428D01*
X135267857Y-78107142D01*
X135303571Y-78035714D01*
X135339285Y-78000000D01*
X135410714Y-77964285D01*
X135517857Y-77964285D01*
X135589285Y-78000000D01*
X135625000Y-78035714D01*
X135660714Y-78107142D01*
X135660714Y-78321428D01*
X135625000Y-78392857D01*
X135589285Y-78428571D01*
X135517857Y-78464285D01*
X135410714Y-78464285D01*
X136303571Y-77964285D02*
X136303571Y-78464285D01*
X135982142Y-77964285D02*
X135982142Y-78357142D01*
X136017857Y-78428571D01*
X136089285Y-78464285D01*
X136196428Y-78464285D01*
X136267857Y-78428571D01*
X136303571Y-78392857D01*
X136553571Y-77964285D02*
X136839285Y-77964285D01*
X136660714Y-77714285D02*
X136660714Y-78357142D01*
X136696428Y-78428571D01*
X136767857Y-78464285D01*
X136839285Y-78464285D01*
X128410714Y-64625000D02*
X128339285Y-64589285D01*
X128232142Y-64589285D01*
X128125000Y-64625000D01*
X128053571Y-64696428D01*
X128017857Y-64767857D01*
X127982142Y-64910714D01*
X127982142Y-65017857D01*
X128017857Y-65160714D01*
X128053571Y-65232142D01*
X128125000Y-65303571D01*
X128232142Y-65339285D01*
X128303571Y-65339285D01*
X128410714Y-65303571D01*
X128446428Y-65267857D01*
X128446428Y-65017857D01*
X128303571Y-65017857D01*
X128767857Y-65339285D02*
X128767857Y-64589285D01*
X129196428Y-65339285D01*
X129196428Y-64589285D01*
X129553571Y-65339285D02*
X129553571Y-64589285D01*
X129732142Y-64589285D01*
X129839285Y-64625000D01*
X129910714Y-64696428D01*
X129946428Y-64767857D01*
X129982142Y-64910714D01*
X129982142Y-65017857D01*
X129946428Y-65160714D01*
X129910714Y-65232142D01*
X129839285Y-65303571D01*
X129732142Y-65339285D01*
X129553571Y-65339285D01*
X130767857Y-64589285D02*
X131017857Y-65339285D01*
X131267857Y-64589285D01*
X131946428Y-65267857D02*
X131910714Y-65303571D01*
X131803571Y-65339285D01*
X131732142Y-65339285D01*
X131625000Y-65303571D01*
X131553571Y-65232142D01*
X131517857Y-65160714D01*
X131482142Y-65017857D01*
X131482142Y-64910714D01*
X131517857Y-64767857D01*
X131553571Y-64696428D01*
X131625000Y-64625000D01*
X131732142Y-64589285D01*
X131803571Y-64589285D01*
X131910714Y-64625000D01*
X131946428Y-64660714D01*
X132696428Y-65267857D02*
X132660714Y-65303571D01*
X132553571Y-65339285D01*
X132482142Y-65339285D01*
X132375000Y-65303571D01*
X132303571Y-65232142D01*
X132267857Y-65160714D01*
X132232142Y-65017857D01*
X132232142Y-64910714D01*
X132267857Y-64767857D01*
X132303571Y-64696428D01*
X132375000Y-64625000D01*
X132482142Y-64589285D01*
X132553571Y-64589285D01*
X132660714Y-64625000D01*
X132696428Y-64660714D01*
X133553571Y-65303571D02*
X133660714Y-65339285D01*
X133839285Y-65339285D01*
X133910714Y-65303571D01*
X133946428Y-65267857D01*
X133982142Y-65196428D01*
X133982142Y-65125000D01*
X133946428Y-65053571D01*
X133910714Y-65017857D01*
X133839285Y-64982142D01*
X133696428Y-64946428D01*
X133625000Y-64910714D01*
X133589285Y-64875000D01*
X133553571Y-64803571D01*
X133553571Y-64732142D01*
X133589285Y-64660714D01*
X133625000Y-64625000D01*
X133696428Y-64589285D01*
X133875000Y-64589285D01*
X133982142Y-64625000D01*
X134732142Y-65267857D02*
X134696428Y-65303571D01*
X134589285Y-65339285D01*
X134517857Y-65339285D01*
X134410714Y-65303571D01*
X134339285Y-65232142D01*
X134303571Y-65160714D01*
X134267857Y-65017857D01*
X134267857Y-64910714D01*
X134303571Y-64767857D01*
X134339285Y-64696428D01*
X134410714Y-64625000D01*
X134517857Y-64589285D01*
X134589285Y-64589285D01*
X134696428Y-64625000D01*
X134732142Y-64660714D01*
X135410714Y-65339285D02*
X135053571Y-65339285D01*
X135053571Y-64589285D01*
X136196428Y-65303571D02*
X136303571Y-65339285D01*
X136482142Y-65339285D01*
X136553571Y-65303571D01*
X136589285Y-65267857D01*
X136625000Y-65196428D01*
X136625000Y-65125000D01*
X136589285Y-65053571D01*
X136553571Y-65017857D01*
X136482142Y-64982142D01*
X136339285Y-64946428D01*
X136267857Y-64910714D01*
X136232142Y-64875000D01*
X136196428Y-64803571D01*
X136196428Y-64732142D01*
X136232142Y-64660714D01*
X136267857Y-64625000D01*
X136339285Y-64589285D01*
X136517857Y-64589285D01*
X136625000Y-64625000D01*
X136946428Y-65339285D02*
X136946428Y-64589285D01*
X137125000Y-64589285D01*
X137232142Y-64625000D01*
X137303571Y-64696428D01*
X137339285Y-64767857D01*
X137375000Y-64910714D01*
X137375000Y-65017857D01*
X137339285Y-65160714D01*
X137303571Y-65232142D01*
X137232142Y-65303571D01*
X137125000Y-65339285D01*
X136946428Y-65339285D01*
X137660714Y-65125000D02*
X138017857Y-65125000D01*
X137589285Y-65339285D02*
X137839285Y-64589285D01*
X138089285Y-65339285D01*
X127910714Y-73589285D02*
X128160714Y-74339285D01*
X128410714Y-73589285D01*
X129089285Y-74267857D02*
X129053571Y-74303571D01*
X128946428Y-74339285D01*
X128875000Y-74339285D01*
X128767857Y-74303571D01*
X128696428Y-74232142D01*
X128660714Y-74160714D01*
X128625000Y-74017857D01*
X128625000Y-73910714D01*
X128660714Y-73767857D01*
X128696428Y-73696428D01*
X128767857Y-73625000D01*
X128875000Y-73589285D01*
X128946428Y-73589285D01*
X129053571Y-73625000D01*
X129089285Y-73660714D01*
X129839285Y-74267857D02*
X129803571Y-74303571D01*
X129696428Y-74339285D01*
X129625000Y-74339285D01*
X129517857Y-74303571D01*
X129446428Y-74232142D01*
X129410714Y-74160714D01*
X129375000Y-74017857D01*
X129375000Y-73910714D01*
X129410714Y-73767857D01*
X129446428Y-73696428D01*
X129517857Y-73625000D01*
X129625000Y-73589285D01*
X129696428Y-73589285D01*
X129803571Y-73625000D01*
X129839285Y-73660714D01*
X131125000Y-73625000D02*
X131053571Y-73589285D01*
X130946428Y-73589285D01*
X130839285Y-73625000D01*
X130767857Y-73696428D01*
X130732142Y-73767857D01*
X130696428Y-73910714D01*
X130696428Y-74017857D01*
X130732142Y-74160714D01*
X130767857Y-74232142D01*
X130839285Y-74303571D01*
X130946428Y-74339285D01*
X131017857Y-74339285D01*
X131125000Y-74303571D01*
X131160714Y-74267857D01*
X131160714Y-74017857D01*
X131017857Y-74017857D01*
X131482142Y-74339285D02*
X131482142Y-73589285D01*
X131910714Y-74339285D01*
X131910714Y-73589285D01*
X132267857Y-74339285D02*
X132267857Y-73589285D01*
X132446428Y-73589285D01*
X132553571Y-73625000D01*
X132625000Y-73696428D01*
X132660714Y-73767857D01*
X132696428Y-73910714D01*
X132696428Y-74017857D01*
X132660714Y-74160714D01*
X132625000Y-74232142D01*
X132553571Y-74303571D01*
X132446428Y-74339285D01*
X132267857Y-74339285D01*
X133553571Y-74303571D02*
X133660714Y-74339285D01*
X133839285Y-74339285D01*
X133910714Y-74303571D01*
X133946428Y-74267857D01*
X133982142Y-74196428D01*
X133982142Y-74125000D01*
X133946428Y-74053571D01*
X133910714Y-74017857D01*
X133839285Y-73982142D01*
X133696428Y-73946428D01*
X133625000Y-73910714D01*
X133589285Y-73875000D01*
X133553571Y-73803571D01*
X133553571Y-73732142D01*
X133589285Y-73660714D01*
X133625000Y-73625000D01*
X133696428Y-73589285D01*
X133875000Y-73589285D01*
X133982142Y-73625000D01*
X134732142Y-74267857D02*
X134696428Y-74303571D01*
X134589285Y-74339285D01*
X134517857Y-74339285D01*
X134410714Y-74303571D01*
X134339285Y-74232142D01*
X134303571Y-74160714D01*
X134267857Y-74017857D01*
X134267857Y-73910714D01*
X134303571Y-73767857D01*
X134339285Y-73696428D01*
X134410714Y-73625000D01*
X134517857Y-73589285D01*
X134589285Y-73589285D01*
X134696428Y-73625000D01*
X134732142Y-73660714D01*
X135410714Y-74339285D02*
X135053571Y-74339285D01*
X135053571Y-73589285D01*
X136196428Y-74303571D02*
X136303571Y-74339285D01*
X136482142Y-74339285D01*
X136553571Y-74303571D01*
X136589285Y-74267857D01*
X136625000Y-74196428D01*
X136625000Y-74125000D01*
X136589285Y-74053571D01*
X136553571Y-74017857D01*
X136482142Y-73982142D01*
X136339285Y-73946428D01*
X136267857Y-73910714D01*
X136232142Y-73875000D01*
X136196428Y-73803571D01*
X136196428Y-73732142D01*
X136232142Y-73660714D01*
X136267857Y-73625000D01*
X136339285Y-73589285D01*
X136517857Y-73589285D01*
X136625000Y-73625000D01*
X136946428Y-74339285D02*
X136946428Y-73589285D01*
X137125000Y-73589285D01*
X137232142Y-73625000D01*
X137303571Y-73696428D01*
X137339285Y-73767857D01*
X137375000Y-73910714D01*
X137375000Y-74017857D01*
X137339285Y-74160714D01*
X137303571Y-74232142D01*
X137232142Y-74303571D01*
X137125000Y-74339285D01*
X136946428Y-74339285D01*
X137660714Y-74125000D02*
X138017857Y-74125000D01*
X137589285Y-74339285D02*
X137839285Y-73589285D01*
X138089285Y-74339285D01*
D11*
X174700000Y-73516666D02*
X174700000Y-72816666D01*
X174700000Y-73083333D02*
X174766666Y-73050000D01*
X174900000Y-73050000D01*
X174966666Y-73083333D01*
X175000000Y-73116666D01*
X175033333Y-73183333D01*
X175033333Y-73383333D01*
X175000000Y-73450000D01*
X174966666Y-73483333D01*
X174900000Y-73516666D01*
X174766666Y-73516666D01*
X174700000Y-73483333D01*
X175266666Y-73050000D02*
X175433333Y-73516666D01*
X175600000Y-73050000D02*
X175433333Y-73516666D01*
X175366666Y-73683333D01*
X175333333Y-73716666D01*
X175266666Y-73750000D01*
X176300000Y-73050000D02*
X176566666Y-73050000D01*
X176400000Y-72816666D02*
X176400000Y-73416666D01*
X176433333Y-73483333D01*
X176500000Y-73516666D01*
X176566666Y-73516666D01*
X176900000Y-73516666D02*
X176833333Y-73483333D01*
X176800000Y-73450000D01*
X176766666Y-73383333D01*
X176766666Y-73183333D01*
X176800000Y-73116666D01*
X176833333Y-73083333D01*
X176900000Y-73050000D01*
X177000000Y-73050000D01*
X177066666Y-73083333D01*
X177100000Y-73116666D01*
X177133333Y-73183333D01*
X177133333Y-73383333D01*
X177100000Y-73450000D01*
X177066666Y-73483333D01*
X177000000Y-73516666D01*
X176900000Y-73516666D01*
X177433333Y-73516666D02*
X177433333Y-73050000D01*
X177433333Y-73116666D02*
X177466666Y-73083333D01*
X177533333Y-73050000D01*
X177633333Y-73050000D01*
X177700000Y-73083333D01*
X177733333Y-73150000D01*
X177733333Y-73516666D01*
X177733333Y-73150000D02*
X177766666Y-73083333D01*
X177833333Y-73050000D01*
X177933333Y-73050000D01*
X178000000Y-73083333D01*
X178033333Y-73150000D01*
X178033333Y-73516666D01*
X178666666Y-73516666D02*
X178666666Y-73150000D01*
X178633333Y-73083333D01*
X178566666Y-73050000D01*
X178433333Y-73050000D01*
X178366666Y-73083333D01*
X178666666Y-73483333D02*
X178600000Y-73516666D01*
X178433333Y-73516666D01*
X178366666Y-73483333D01*
X178333333Y-73416666D01*
X178333333Y-73350000D01*
X178366666Y-73283333D01*
X178433333Y-73250000D01*
X178600000Y-73250000D01*
X178666666Y-73216666D01*
X179000000Y-73516666D02*
X179000000Y-73050000D01*
X179000000Y-73183333D02*
X179033333Y-73116666D01*
X179066666Y-73083333D01*
X179133333Y-73050000D01*
X179200000Y-73050000D01*
X179733333Y-73050000D02*
X179733333Y-73516666D01*
X179433333Y-73050000D02*
X179433333Y-73416666D01*
X179466666Y-73483333D01*
X179533333Y-73516666D01*
X179633333Y-73516666D01*
X179700000Y-73483333D01*
X179733333Y-73450000D01*
X180033333Y-73483333D02*
X180100000Y-73516666D01*
X180233333Y-73516666D01*
X180300000Y-73483333D01*
X180333333Y-73416666D01*
X180333333Y-73383333D01*
X180300000Y-73316666D01*
X180233333Y-73283333D01*
X180133333Y-73283333D01*
X180066666Y-73250000D01*
X180033333Y-73183333D01*
X180033333Y-73150000D01*
X180066666Y-73083333D01*
X180133333Y-73050000D01*
X180233333Y-73050000D01*
X180300000Y-73083333D01*
X166799999Y-74666666D02*
X166799999Y-73966666D01*
X167099999Y-74666666D02*
X167099999Y-74300000D01*
X167066666Y-74233333D01*
X166999999Y-74200000D01*
X166899999Y-74200000D01*
X166833333Y-74233333D01*
X166799999Y-74266666D01*
X167333333Y-74200000D02*
X167599999Y-74200000D01*
X167433333Y-73966666D02*
X167433333Y-74566666D01*
X167466666Y-74633333D01*
X167533333Y-74666666D01*
X167599999Y-74666666D01*
X167733333Y-74200000D02*
X167999999Y-74200000D01*
X167833333Y-73966666D02*
X167833333Y-74566666D01*
X167866666Y-74633333D01*
X167933333Y-74666666D01*
X167999999Y-74666666D01*
X168233333Y-74200000D02*
X168233333Y-74900000D01*
X168233333Y-74233333D02*
X168299999Y-74200000D01*
X168433333Y-74200000D01*
X168499999Y-74233333D01*
X168533333Y-74266666D01*
X168566666Y-74333333D01*
X168566666Y-74533333D01*
X168533333Y-74600000D01*
X168499999Y-74633333D01*
X168433333Y-74666666D01*
X168299999Y-74666666D01*
X168233333Y-74633333D01*
X168833333Y-74633333D02*
X168899999Y-74666666D01*
X169033333Y-74666666D01*
X169099999Y-74633333D01*
X169133333Y-74566666D01*
X169133333Y-74533333D01*
X169099999Y-74466666D01*
X169033333Y-74433333D01*
X168933333Y-74433333D01*
X168866666Y-74400000D01*
X168833333Y-74333333D01*
X168833333Y-74300000D01*
X168866666Y-74233333D01*
X168933333Y-74200000D01*
X169033333Y-74200000D01*
X169099999Y-74233333D01*
X169433333Y-74600000D02*
X169466666Y-74633333D01*
X169433333Y-74666666D01*
X169399999Y-74633333D01*
X169433333Y-74600000D01*
X169433333Y-74666666D01*
X169433333Y-74233333D02*
X169466666Y-74266666D01*
X169433333Y-74300000D01*
X169399999Y-74266666D01*
X169433333Y-74233333D01*
X169433333Y-74300000D01*
X170266666Y-73933333D02*
X169666666Y-74833333D01*
X170999999Y-73933333D02*
X170399999Y-74833333D01*
X171533333Y-74200000D02*
X171533333Y-74766666D01*
X171499999Y-74833333D01*
X171466666Y-74866666D01*
X171399999Y-74900000D01*
X171299999Y-74900000D01*
X171233333Y-74866666D01*
X171533333Y-74633333D02*
X171466666Y-74666666D01*
X171333333Y-74666666D01*
X171266666Y-74633333D01*
X171233333Y-74600000D01*
X171199999Y-74533333D01*
X171199999Y-74333333D01*
X171233333Y-74266666D01*
X171266666Y-74233333D01*
X171333333Y-74200000D01*
X171466666Y-74200000D01*
X171533333Y-74233333D01*
X171866666Y-74666666D02*
X171866666Y-74200000D01*
X171866666Y-73966666D02*
X171833333Y-74000000D01*
X171866666Y-74033333D01*
X171899999Y-74000000D01*
X171866666Y-73966666D01*
X171866666Y-74033333D01*
X172099999Y-74200000D02*
X172366666Y-74200000D01*
X172199999Y-73966666D02*
X172199999Y-74566666D01*
X172233333Y-74633333D01*
X172299999Y-74666666D01*
X172366666Y-74666666D01*
X172599999Y-74666666D02*
X172599999Y-73966666D01*
X172899999Y-74666666D02*
X172899999Y-74300000D01*
X172866666Y-74233333D01*
X172799999Y-74200000D01*
X172699999Y-74200000D01*
X172633333Y-74233333D01*
X172599999Y-74266666D01*
X173533333Y-74200000D02*
X173533333Y-74666666D01*
X173233333Y-74200000D02*
X173233333Y-74566666D01*
X173266666Y-74633333D01*
X173333333Y-74666666D01*
X173433333Y-74666666D01*
X173499999Y-74633333D01*
X173533333Y-74600000D01*
X173866666Y-74666666D02*
X173866666Y-73966666D01*
X173866666Y-74233333D02*
X173933333Y-74200000D01*
X174066666Y-74200000D01*
X174133333Y-74233333D01*
X174166666Y-74266666D01*
X174199999Y-74333333D01*
X174199999Y-74533333D01*
X174166666Y-74600000D01*
X174133333Y-74633333D01*
X174066666Y-74666666D01*
X173933333Y-74666666D01*
X173866666Y-74633333D01*
X174499999Y-74600000D02*
X174533333Y-74633333D01*
X174499999Y-74666666D01*
X174466666Y-74633333D01*
X174499999Y-74600000D01*
X174499999Y-74666666D01*
X175133333Y-74633333D02*
X175066666Y-74666666D01*
X174933333Y-74666666D01*
X174866666Y-74633333D01*
X174833333Y-74600000D01*
X174799999Y-74533333D01*
X174799999Y-74333333D01*
X174833333Y-74266666D01*
X174866666Y-74233333D01*
X174933333Y-74200000D01*
X175066666Y-74200000D01*
X175133333Y-74233333D01*
X175533333Y-74666666D02*
X175466666Y-74633333D01*
X175433333Y-74600000D01*
X175399999Y-74533333D01*
X175399999Y-74333333D01*
X175433333Y-74266666D01*
X175466666Y-74233333D01*
X175533333Y-74200000D01*
X175633333Y-74200000D01*
X175699999Y-74233333D01*
X175733333Y-74266666D01*
X175766666Y-74333333D01*
X175766666Y-74533333D01*
X175733333Y-74600000D01*
X175699999Y-74633333D01*
X175633333Y-74666666D01*
X175533333Y-74666666D01*
X176066666Y-74666666D02*
X176066666Y-74200000D01*
X176066666Y-74266666D02*
X176099999Y-74233333D01*
X176166666Y-74200000D01*
X176266666Y-74200000D01*
X176333333Y-74233333D01*
X176366666Y-74300000D01*
X176366666Y-74666666D01*
X176366666Y-74300000D02*
X176399999Y-74233333D01*
X176466666Y-74200000D01*
X176566666Y-74200000D01*
X176633333Y-74233333D01*
X176666666Y-74300000D01*
X176666666Y-74666666D01*
X177499999Y-73933333D02*
X176899999Y-74833333D01*
X177633333Y-74200000D02*
X177899999Y-74200000D01*
X177733333Y-73966666D02*
X177733333Y-74566666D01*
X177766666Y-74633333D01*
X177833333Y-74666666D01*
X177899999Y-74666666D01*
X178233333Y-74666666D02*
X178166666Y-74633333D01*
X178133333Y-74600000D01*
X178099999Y-74533333D01*
X178099999Y-74333333D01*
X178133333Y-74266666D01*
X178166666Y-74233333D01*
X178233333Y-74200000D01*
X178333333Y-74200000D01*
X178399999Y-74233333D01*
X178433333Y-74266666D01*
X178466666Y-74333333D01*
X178466666Y-74533333D01*
X178433333Y-74600000D01*
X178399999Y-74633333D01*
X178333333Y-74666666D01*
X178233333Y-74666666D01*
X178766666Y-74666666D02*
X178766666Y-74200000D01*
X178766666Y-74266666D02*
X178799999Y-74233333D01*
X178866666Y-74200000D01*
X178966666Y-74200000D01*
X179033333Y-74233333D01*
X179066666Y-74300000D01*
X179066666Y-74666666D01*
X179066666Y-74300000D02*
X179099999Y-74233333D01*
X179166666Y-74200000D01*
X179266666Y-74200000D01*
X179333333Y-74233333D01*
X179366666Y-74300000D01*
X179366666Y-74666666D01*
X179999999Y-74666666D02*
X179999999Y-74300000D01*
X179966666Y-74233333D01*
X179899999Y-74200000D01*
X179766666Y-74200000D01*
X179699999Y-74233333D01*
X179999999Y-74633333D02*
X179933333Y-74666666D01*
X179766666Y-74666666D01*
X179699999Y-74633333D01*
X179666666Y-74566666D01*
X179666666Y-74500000D01*
X179699999Y-74433333D01*
X179766666Y-74400000D01*
X179933333Y-74400000D01*
X179999999Y-74366666D01*
X180333333Y-74666666D02*
X180333333Y-74200000D01*
X180333333Y-74333333D02*
X180366666Y-74266666D01*
X180399999Y-74233333D01*
X180466666Y-74200000D01*
X180533333Y-74200000D01*
X181066666Y-74200000D02*
X181066666Y-74666666D01*
X180766666Y-74200000D02*
X180766666Y-74566666D01*
X180799999Y-74633333D01*
X180866666Y-74666666D01*
X180966666Y-74666666D01*
X181033333Y-74633333D01*
X181066666Y-74600000D01*
X181366666Y-74633333D02*
X181433333Y-74666666D01*
X181566666Y-74666666D01*
X181633333Y-74633333D01*
X181666666Y-74566666D01*
X181666666Y-74533333D01*
X181633333Y-74466666D01*
X181566666Y-74433333D01*
X181466666Y-74433333D01*
X181399999Y-74400000D01*
X181366666Y-74333333D01*
X181366666Y-74300000D01*
X181399999Y-74233333D01*
X181466666Y-74200000D01*
X181566666Y-74200000D01*
X181633333Y-74233333D01*
X182466666Y-73933333D02*
X181866666Y-74833333D01*
X182999999Y-74633333D02*
X182933333Y-74666666D01*
X182799999Y-74666666D01*
X182733333Y-74633333D01*
X182699999Y-74600000D01*
X182666666Y-74533333D01*
X182666666Y-74333333D01*
X182699999Y-74266666D01*
X182733333Y-74233333D01*
X182799999Y-74200000D01*
X182933333Y-74200000D01*
X182999999Y-74233333D01*
X183600000Y-74666666D02*
X183600000Y-74300000D01*
X183566666Y-74233333D01*
X183500000Y-74200000D01*
X183366666Y-74200000D01*
X183299999Y-74233333D01*
X183600000Y-74633333D02*
X183533333Y-74666666D01*
X183366666Y-74666666D01*
X183299999Y-74633333D01*
X183266666Y-74566666D01*
X183266666Y-74500000D01*
X183299999Y-74433333D01*
X183366666Y-74400000D01*
X183533333Y-74400000D01*
X183600000Y-74366666D01*
X183933333Y-74666666D02*
X183933333Y-73966666D01*
X183933333Y-74233333D02*
X183999999Y-74200000D01*
X184133333Y-74200000D01*
X184199999Y-74233333D01*
X184233333Y-74266666D01*
X184266666Y-74333333D01*
X184266666Y-74533333D01*
X184233333Y-74600000D01*
X184199999Y-74633333D01*
X184133333Y-74666666D01*
X183999999Y-74666666D01*
X183933333Y-74633333D01*
X184666666Y-74666666D02*
X184599999Y-74633333D01*
X184566666Y-74566666D01*
X184566666Y-73966666D01*
X185199999Y-74633333D02*
X185133333Y-74666666D01*
X184999999Y-74666666D01*
X184933333Y-74633333D01*
X184899999Y-74566666D01*
X184899999Y-74300000D01*
X184933333Y-74233333D01*
X184999999Y-74200000D01*
X185133333Y-74200000D01*
X185199999Y-74233333D01*
X185233333Y-74300000D01*
X185233333Y-74366666D01*
X184899999Y-74433333D01*
X185433333Y-74200000D02*
X185699999Y-74200000D01*
X185533333Y-73966666D02*
X185533333Y-74566666D01*
X185566666Y-74633333D01*
X185633333Y-74666666D01*
X185699999Y-74666666D01*
X186199999Y-74633333D02*
X186133333Y-74666666D01*
X185999999Y-74666666D01*
X185933333Y-74633333D01*
X185899999Y-74566666D01*
X185899999Y-74300000D01*
X185933333Y-74233333D01*
X185999999Y-74200000D01*
X186133333Y-74200000D01*
X186199999Y-74233333D01*
X186233333Y-74300000D01*
X186233333Y-74366666D01*
X185899999Y-74433333D01*
X186499999Y-74633333D02*
X186566666Y-74666666D01*
X186699999Y-74666666D01*
X186766666Y-74633333D01*
X186799999Y-74566666D01*
X186799999Y-74533333D01*
X186766666Y-74466666D01*
X186699999Y-74433333D01*
X186599999Y-74433333D01*
X186533333Y-74400000D01*
X186499999Y-74333333D01*
X186499999Y-74300000D01*
X186533333Y-74233333D01*
X186599999Y-74200000D01*
X186699999Y-74200000D01*
X186766666Y-74233333D01*
X187000000Y-74200000D02*
X187266666Y-74200000D01*
X187100000Y-73966666D02*
X187100000Y-74566666D01*
X187133333Y-74633333D01*
X187200000Y-74666666D01*
X187266666Y-74666666D01*
X187766666Y-74633333D02*
X187700000Y-74666666D01*
X187566666Y-74666666D01*
X187500000Y-74633333D01*
X187466666Y-74566666D01*
X187466666Y-74300000D01*
X187500000Y-74233333D01*
X187566666Y-74200000D01*
X187700000Y-74200000D01*
X187766666Y-74233333D01*
X187800000Y-74300000D01*
X187800000Y-74366666D01*
X187466666Y-74433333D01*
X188100000Y-74666666D02*
X188100000Y-74200000D01*
X188100000Y-74333333D02*
X188133333Y-74266666D01*
X188166666Y-74233333D01*
X188233333Y-74200000D01*
X188300000Y-74200000D01*
X172183333Y-75816666D02*
X172183333Y-75116666D01*
X172450000Y-75116666D01*
X172516666Y-75150000D01*
X172550000Y-75183333D01*
X172583333Y-75250000D01*
X172583333Y-75350000D01*
X172550000Y-75416666D01*
X172516666Y-75450000D01*
X172450000Y-75483333D01*
X172183333Y-75483333D01*
X173283333Y-75750000D02*
X173250000Y-75783333D01*
X173150000Y-75816666D01*
X173083333Y-75816666D01*
X172983333Y-75783333D01*
X172916666Y-75716666D01*
X172883333Y-75650000D01*
X172850000Y-75516666D01*
X172850000Y-75416666D01*
X172883333Y-75283333D01*
X172916666Y-75216666D01*
X172983333Y-75150000D01*
X173083333Y-75116666D01*
X173150000Y-75116666D01*
X173250000Y-75150000D01*
X173283333Y-75183333D01*
X173816666Y-75450000D02*
X173916666Y-75483333D01*
X173950000Y-75516666D01*
X173983333Y-75583333D01*
X173983333Y-75683333D01*
X173950000Y-75750000D01*
X173916666Y-75783333D01*
X173850000Y-75816666D01*
X173583333Y-75816666D01*
X173583333Y-75116666D01*
X173816666Y-75116666D01*
X173883333Y-75150000D01*
X173916666Y-75183333D01*
X173950000Y-75250000D01*
X173950000Y-75316666D01*
X173916666Y-75383333D01*
X173883333Y-75416666D01*
X173816666Y-75450000D01*
X173583333Y-75450000D01*
X174816666Y-75816666D02*
X174816666Y-75116666D01*
X174816666Y-75383333D02*
X174883333Y-75350000D01*
X175016666Y-75350000D01*
X175083333Y-75383333D01*
X175116666Y-75416666D01*
X175150000Y-75483333D01*
X175150000Y-75683333D01*
X175116666Y-75750000D01*
X175083333Y-75783333D01*
X175016666Y-75816666D01*
X174883333Y-75816666D01*
X174816666Y-75783333D01*
X175383333Y-75350000D02*
X175550000Y-75816666D01*
X175716666Y-75350000D02*
X175550000Y-75816666D01*
X175483333Y-75983333D01*
X175450000Y-76016666D01*
X175383333Y-76050000D01*
X176916666Y-75816666D02*
X176683333Y-75483333D01*
X176516666Y-75816666D02*
X176516666Y-75116666D01*
X176783333Y-75116666D01*
X176850000Y-75150000D01*
X176883333Y-75183333D01*
X176916666Y-75250000D01*
X176916666Y-75350000D01*
X176883333Y-75416666D01*
X176850000Y-75450000D01*
X176783333Y-75483333D01*
X176516666Y-75483333D01*
X177216666Y-75816666D02*
X177216666Y-75350000D01*
X177216666Y-75116666D02*
X177183333Y-75150000D01*
X177216666Y-75183333D01*
X177250000Y-75150000D01*
X177216666Y-75116666D01*
X177216666Y-75183333D01*
X177850000Y-75783333D02*
X177783333Y-75816666D01*
X177650000Y-75816666D01*
X177583333Y-75783333D01*
X177550000Y-75750000D01*
X177516666Y-75683333D01*
X177516666Y-75483333D01*
X177550000Y-75416666D01*
X177583333Y-75383333D01*
X177650000Y-75350000D01*
X177783333Y-75350000D01*
X177850000Y-75383333D01*
X178150000Y-75816666D02*
X178150000Y-75116666D01*
X178450000Y-75816666D02*
X178450000Y-75450000D01*
X178416666Y-75383333D01*
X178350000Y-75350000D01*
X178250000Y-75350000D01*
X178183333Y-75383333D01*
X178150000Y-75416666D01*
X179316666Y-75816666D02*
X179316666Y-75116666D01*
X179316666Y-75450000D02*
X179716666Y-75450000D01*
X179716666Y-75816666D02*
X179716666Y-75116666D01*
X180150000Y-75816666D02*
X180083333Y-75783333D01*
X180050000Y-75750000D01*
X180016666Y-75683333D01*
X180016666Y-75483333D01*
X180050000Y-75416666D01*
X180083333Y-75383333D01*
X180150000Y-75350000D01*
X180250000Y-75350000D01*
X180316666Y-75383333D01*
X180350000Y-75416666D01*
X180383333Y-75483333D01*
X180383333Y-75683333D01*
X180350000Y-75750000D01*
X180316666Y-75783333D01*
X180250000Y-75816666D01*
X180150000Y-75816666D01*
X180783333Y-75816666D02*
X180716666Y-75783333D01*
X180683333Y-75716666D01*
X180683333Y-75116666D01*
X181050000Y-75816666D02*
X181050000Y-75350000D01*
X181050000Y-75416666D02*
X181083333Y-75383333D01*
X181150000Y-75350000D01*
X181250000Y-75350000D01*
X181316666Y-75383333D01*
X181350000Y-75450000D01*
X181350000Y-75816666D01*
X181350000Y-75450000D02*
X181383333Y-75383333D01*
X181450000Y-75350000D01*
X181550000Y-75350000D01*
X181616666Y-75383333D01*
X181650000Y-75450000D01*
X181650000Y-75816666D01*
X182250000Y-75783333D02*
X182183333Y-75816666D01*
X182050000Y-75816666D01*
X181983333Y-75783333D01*
X181950000Y-75716666D01*
X181950000Y-75450000D01*
X181983333Y-75383333D01*
X182050000Y-75350000D01*
X182183333Y-75350000D01*
X182250000Y-75383333D01*
X182283333Y-75450000D01*
X182283333Y-75516666D01*
X181950000Y-75583333D01*
X182550000Y-75783333D02*
X182616666Y-75816666D01*
X182750000Y-75816666D01*
X182816666Y-75783333D01*
X182850000Y-75716666D01*
X182850000Y-75683333D01*
X182816666Y-75616666D01*
X182750000Y-75583333D01*
X182650000Y-75583333D01*
X182583333Y-75550000D01*
X182550000Y-75483333D01*
X182550000Y-75450000D01*
X182583333Y-75383333D01*
X182650000Y-75350000D01*
X182750000Y-75350000D01*
X182816666Y-75383333D01*
X175100000Y-76766666D02*
X175433333Y-76766666D01*
X175033333Y-76966666D02*
X175266666Y-76266666D01*
X175500000Y-76966666D01*
X176033333Y-76500000D02*
X176033333Y-76966666D01*
X175733333Y-76500000D02*
X175733333Y-76866666D01*
X175766666Y-76933333D01*
X175833333Y-76966666D01*
X175933333Y-76966666D01*
X176000000Y-76933333D01*
X176033333Y-76900000D01*
X176666666Y-76500000D02*
X176666666Y-77066666D01*
X176633333Y-77133333D01*
X176600000Y-77166666D01*
X176533333Y-77200000D01*
X176433333Y-77200000D01*
X176366666Y-77166666D01*
X176666666Y-76933333D02*
X176600000Y-76966666D01*
X176466666Y-76966666D01*
X176400000Y-76933333D01*
X176366666Y-76900000D01*
X176333333Y-76833333D01*
X176333333Y-76633333D01*
X176366666Y-76566666D01*
X176400000Y-76533333D01*
X176466666Y-76500000D01*
X176600000Y-76500000D01*
X176666666Y-76533333D01*
X177500000Y-76333333D02*
X177533333Y-76300000D01*
X177600000Y-76266666D01*
X177766666Y-76266666D01*
X177833333Y-76300000D01*
X177866666Y-76333333D01*
X177900000Y-76400000D01*
X177900000Y-76466666D01*
X177866666Y-76566666D01*
X177466666Y-76966666D01*
X177900000Y-76966666D01*
X178333333Y-76266666D02*
X178400000Y-76266666D01*
X178466666Y-76300000D01*
X178500000Y-76333333D01*
X178533333Y-76400000D01*
X178566666Y-76533333D01*
X178566666Y-76700000D01*
X178533333Y-76833333D01*
X178500000Y-76900000D01*
X178466666Y-76933333D01*
X178400000Y-76966666D01*
X178333333Y-76966666D01*
X178266666Y-76933333D01*
X178233333Y-76900000D01*
X178200000Y-76833333D01*
X178166666Y-76700000D01*
X178166666Y-76533333D01*
X178200000Y-76400000D01*
X178233333Y-76333333D01*
X178266666Y-76300000D01*
X178333333Y-76266666D01*
X178833333Y-76333333D02*
X178866666Y-76300000D01*
X178933333Y-76266666D01*
X179100000Y-76266666D01*
X179166666Y-76300000D01*
X179200000Y-76333333D01*
X179233333Y-76400000D01*
X179233333Y-76466666D01*
X179200000Y-76566666D01*
X178800000Y-76966666D01*
X179233333Y-76966666D01*
X179666666Y-76266666D02*
X179733333Y-76266666D01*
X179800000Y-76300000D01*
X179833333Y-76333333D01*
X179866666Y-76400000D01*
X179900000Y-76533333D01*
X179900000Y-76700000D01*
X179866666Y-76833333D01*
X179833333Y-76900000D01*
X179800000Y-76933333D01*
X179733333Y-76966666D01*
X179666666Y-76966666D01*
X179600000Y-76933333D01*
X179566666Y-76900000D01*
X179533333Y-76833333D01*
X179500000Y-76700000D01*
X179500000Y-76533333D01*
X179533333Y-76400000D01*
X179566666Y-76333333D01*
X179600000Y-76300000D01*
X179666666Y-76266666D01*
X164916666Y-78116666D02*
X164916666Y-77416666D01*
X165216666Y-78116666D02*
X165216666Y-77750000D01*
X165183333Y-77683333D01*
X165116666Y-77650000D01*
X165016666Y-77650000D01*
X164950000Y-77683333D01*
X164916666Y-77716666D01*
X165450000Y-77650000D02*
X165716666Y-77650000D01*
X165550000Y-77416666D02*
X165550000Y-78016666D01*
X165583333Y-78083333D01*
X165650000Y-78116666D01*
X165716666Y-78116666D01*
X165850000Y-77650000D02*
X166116666Y-77650000D01*
X165950000Y-77416666D02*
X165950000Y-78016666D01*
X165983333Y-78083333D01*
X166050000Y-78116666D01*
X166116666Y-78116666D01*
X166350000Y-77650000D02*
X166350000Y-78350000D01*
X166350000Y-77683333D02*
X166416666Y-77650000D01*
X166550000Y-77650000D01*
X166616666Y-77683333D01*
X166650000Y-77716666D01*
X166683333Y-77783333D01*
X166683333Y-77983333D01*
X166650000Y-78050000D01*
X166616666Y-78083333D01*
X166550000Y-78116666D01*
X166416666Y-78116666D01*
X166350000Y-78083333D01*
X166950000Y-78083333D02*
X167016666Y-78116666D01*
X167150000Y-78116666D01*
X167216666Y-78083333D01*
X167250000Y-78016666D01*
X167250000Y-77983333D01*
X167216666Y-77916666D01*
X167150000Y-77883333D01*
X167050000Y-77883333D01*
X166983333Y-77850000D01*
X166950000Y-77783333D01*
X166950000Y-77750000D01*
X166983333Y-77683333D01*
X167050000Y-77650000D01*
X167150000Y-77650000D01*
X167216666Y-77683333D01*
X167550000Y-78050000D02*
X167583333Y-78083333D01*
X167550000Y-78116666D01*
X167516666Y-78083333D01*
X167550000Y-78050000D01*
X167550000Y-78116666D01*
X167550000Y-77683333D02*
X167583333Y-77716666D01*
X167550000Y-77750000D01*
X167516666Y-77716666D01*
X167550000Y-77683333D01*
X167550000Y-77750000D01*
X168383333Y-77383333D02*
X167783333Y-78283333D01*
X169116666Y-77383333D02*
X168516666Y-78283333D01*
X169650000Y-77650000D02*
X169650000Y-78216666D01*
X169616666Y-78283333D01*
X169583333Y-78316666D01*
X169516666Y-78350000D01*
X169416666Y-78350000D01*
X169350000Y-78316666D01*
X169650000Y-78083333D02*
X169583333Y-78116666D01*
X169450000Y-78116666D01*
X169383333Y-78083333D01*
X169350000Y-78050000D01*
X169316666Y-77983333D01*
X169316666Y-77783333D01*
X169350000Y-77716666D01*
X169383333Y-77683333D01*
X169450000Y-77650000D01*
X169583333Y-77650000D01*
X169650000Y-77683333D01*
X169983333Y-78116666D02*
X169983333Y-77650000D01*
X169983333Y-77416666D02*
X169950000Y-77450000D01*
X169983333Y-77483333D01*
X170016666Y-77450000D01*
X169983333Y-77416666D01*
X169983333Y-77483333D01*
X170216666Y-77650000D02*
X170483333Y-77650000D01*
X170316666Y-77416666D02*
X170316666Y-78016666D01*
X170350000Y-78083333D01*
X170416666Y-78116666D01*
X170483333Y-78116666D01*
X170716666Y-78116666D02*
X170716666Y-77416666D01*
X171016666Y-78116666D02*
X171016666Y-77750000D01*
X170983333Y-77683333D01*
X170916666Y-77650000D01*
X170816666Y-77650000D01*
X170750000Y-77683333D01*
X170716666Y-77716666D01*
X171650000Y-77650000D02*
X171650000Y-78116666D01*
X171350000Y-77650000D02*
X171350000Y-78016666D01*
X171383333Y-78083333D01*
X171450000Y-78116666D01*
X171550000Y-78116666D01*
X171616666Y-78083333D01*
X171650000Y-78050000D01*
X171983333Y-78116666D02*
X171983333Y-77416666D01*
X171983333Y-77683333D02*
X172050000Y-77650000D01*
X172183333Y-77650000D01*
X172250000Y-77683333D01*
X172283333Y-77716666D01*
X172316666Y-77783333D01*
X172316666Y-77983333D01*
X172283333Y-78050000D01*
X172250000Y-78083333D01*
X172183333Y-78116666D01*
X172050000Y-78116666D01*
X171983333Y-78083333D01*
X172616666Y-78050000D02*
X172650000Y-78083333D01*
X172616666Y-78116666D01*
X172583333Y-78083333D01*
X172616666Y-78050000D01*
X172616666Y-78116666D01*
X173250000Y-78083333D02*
X173183333Y-78116666D01*
X173050000Y-78116666D01*
X172983333Y-78083333D01*
X172950000Y-78050000D01*
X172916666Y-77983333D01*
X172916666Y-77783333D01*
X172950000Y-77716666D01*
X172983333Y-77683333D01*
X173050000Y-77650000D01*
X173183333Y-77650000D01*
X173250000Y-77683333D01*
X173650000Y-78116666D02*
X173583333Y-78083333D01*
X173550000Y-78050000D01*
X173516666Y-77983333D01*
X173516666Y-77783333D01*
X173550000Y-77716666D01*
X173583333Y-77683333D01*
X173650000Y-77650000D01*
X173750000Y-77650000D01*
X173816666Y-77683333D01*
X173850000Y-77716666D01*
X173883333Y-77783333D01*
X173883333Y-77983333D01*
X173850000Y-78050000D01*
X173816666Y-78083333D01*
X173750000Y-78116666D01*
X173650000Y-78116666D01*
X174183333Y-78116666D02*
X174183333Y-77650000D01*
X174183333Y-77716666D02*
X174216666Y-77683333D01*
X174283333Y-77650000D01*
X174383333Y-77650000D01*
X174450000Y-77683333D01*
X174483333Y-77750000D01*
X174483333Y-78116666D01*
X174483333Y-77750000D02*
X174516666Y-77683333D01*
X174583333Y-77650000D01*
X174683333Y-77650000D01*
X174750000Y-77683333D01*
X174783333Y-77750000D01*
X174783333Y-78116666D01*
X175616666Y-77383333D02*
X175016666Y-78283333D01*
X175850000Y-78116666D02*
X175850000Y-77416666D01*
X176150000Y-78116666D02*
X176150000Y-77750000D01*
X176116666Y-77683333D01*
X176050000Y-77650000D01*
X175950000Y-77650000D01*
X175883333Y-77683333D01*
X175850000Y-77716666D01*
X176583333Y-78116666D02*
X176516666Y-78083333D01*
X176483333Y-78050000D01*
X176450000Y-77983333D01*
X176450000Y-77783333D01*
X176483333Y-77716666D01*
X176516666Y-77683333D01*
X176583333Y-77650000D01*
X176683333Y-77650000D01*
X176750000Y-77683333D01*
X176783333Y-77716666D01*
X176816666Y-77783333D01*
X176816666Y-77983333D01*
X176783333Y-78050000D01*
X176750000Y-78083333D01*
X176683333Y-78116666D01*
X176583333Y-78116666D01*
X177216666Y-78116666D02*
X177150000Y-78083333D01*
X177116666Y-78016666D01*
X177116666Y-77416666D01*
X177483333Y-78116666D02*
X177483333Y-77650000D01*
X177483333Y-77716666D02*
X177516666Y-77683333D01*
X177583333Y-77650000D01*
X177683333Y-77650000D01*
X177750000Y-77683333D01*
X177783333Y-77750000D01*
X177783333Y-78116666D01*
X177783333Y-77750000D02*
X177816666Y-77683333D01*
X177883333Y-77650000D01*
X177983333Y-77650000D01*
X178050000Y-77683333D01*
X178083333Y-77750000D01*
X178083333Y-78116666D01*
X178683333Y-78083333D02*
X178616666Y-78116666D01*
X178483333Y-78116666D01*
X178416666Y-78083333D01*
X178383333Y-78016666D01*
X178383333Y-77750000D01*
X178416666Y-77683333D01*
X178483333Y-77650000D01*
X178616666Y-77650000D01*
X178683333Y-77683333D01*
X178716666Y-77750000D01*
X178716666Y-77816666D01*
X178383333Y-77883333D01*
X178983333Y-78083333D02*
X179050000Y-78116666D01*
X179183333Y-78116666D01*
X179250000Y-78083333D01*
X179283333Y-78016666D01*
X179283333Y-77983333D01*
X179250000Y-77916666D01*
X179183333Y-77883333D01*
X179083333Y-77883333D01*
X179016666Y-77850000D01*
X178983333Y-77783333D01*
X178983333Y-77750000D01*
X179016666Y-77683333D01*
X179083333Y-77650000D01*
X179183333Y-77650000D01*
X179250000Y-77683333D01*
X179583333Y-78116666D02*
X179583333Y-77650000D01*
X179583333Y-77783333D02*
X179616666Y-77716666D01*
X179650000Y-77683333D01*
X179716666Y-77650000D01*
X179783333Y-77650000D01*
X180016666Y-78116666D02*
X180016666Y-77650000D01*
X180016666Y-77416666D02*
X179983333Y-77450000D01*
X180016666Y-77483333D01*
X180050000Y-77450000D01*
X180016666Y-77416666D01*
X180016666Y-77483333D01*
X180650000Y-78083333D02*
X180583333Y-78116666D01*
X180450000Y-78116666D01*
X180383333Y-78083333D01*
X180350000Y-78050000D01*
X180316666Y-77983333D01*
X180316666Y-77783333D01*
X180350000Y-77716666D01*
X180383333Y-77683333D01*
X180450000Y-77650000D01*
X180583333Y-77650000D01*
X180650000Y-77683333D01*
X180950000Y-78116666D02*
X180950000Y-77416666D01*
X181250000Y-78116666D02*
X181250000Y-77750000D01*
X181216666Y-77683333D01*
X181150000Y-77650000D01*
X181050000Y-77650000D01*
X180983333Y-77683333D01*
X180950000Y-77716666D01*
X181883333Y-78116666D02*
X181883333Y-77750000D01*
X181850000Y-77683333D01*
X181783333Y-77650000D01*
X181650000Y-77650000D01*
X181583333Y-77683333D01*
X181883333Y-78083333D02*
X181816666Y-78116666D01*
X181650000Y-78116666D01*
X181583333Y-78083333D01*
X181550000Y-78016666D01*
X181550000Y-77950000D01*
X181583333Y-77883333D01*
X181650000Y-77850000D01*
X181816666Y-77850000D01*
X181883333Y-77816666D01*
X182216666Y-78116666D02*
X182216666Y-77650000D01*
X182216666Y-77783333D02*
X182250000Y-77716666D01*
X182283333Y-77683333D01*
X182350000Y-77650000D01*
X182416666Y-77650000D01*
X182950000Y-78116666D02*
X182950000Y-77416666D01*
X182950000Y-78083333D02*
X182883333Y-78116666D01*
X182750000Y-78116666D01*
X182683333Y-78083333D01*
X182650000Y-78050000D01*
X182616666Y-77983333D01*
X182616666Y-77783333D01*
X182650000Y-77716666D01*
X182683333Y-77683333D01*
X182750000Y-77650000D01*
X182883333Y-77650000D01*
X182950000Y-77683333D01*
X183250000Y-78083333D02*
X183316666Y-78116666D01*
X183450000Y-78116666D01*
X183516666Y-78083333D01*
X183550000Y-78016666D01*
X183550000Y-77983333D01*
X183516666Y-77916666D01*
X183450000Y-77883333D01*
X183350000Y-77883333D01*
X183283333Y-77850000D01*
X183250000Y-77783333D01*
X183250000Y-77750000D01*
X183283333Y-77683333D01*
X183350000Y-77650000D01*
X183450000Y-77650000D01*
X183516666Y-77683333D01*
X184350000Y-77383333D02*
X183750000Y-78283333D01*
X184883333Y-78083333D02*
X184816666Y-78116666D01*
X184683333Y-78116666D01*
X184616666Y-78083333D01*
X184583333Y-78050000D01*
X184550000Y-77983333D01*
X184550000Y-77783333D01*
X184583333Y-77716666D01*
X184616666Y-77683333D01*
X184683333Y-77650000D01*
X184816666Y-77650000D01*
X184883333Y-77683333D01*
X185483333Y-78116666D02*
X185483333Y-77750000D01*
X185450000Y-77683333D01*
X185383333Y-77650000D01*
X185250000Y-77650000D01*
X185183333Y-77683333D01*
X185483333Y-78083333D02*
X185416666Y-78116666D01*
X185250000Y-78116666D01*
X185183333Y-78083333D01*
X185150000Y-78016666D01*
X185150000Y-77950000D01*
X185183333Y-77883333D01*
X185250000Y-77850000D01*
X185416666Y-77850000D01*
X185483333Y-77816666D01*
X185816666Y-78116666D02*
X185816666Y-77416666D01*
X185816666Y-77683333D02*
X185883333Y-77650000D01*
X186016666Y-77650000D01*
X186083333Y-77683333D01*
X186116666Y-77716666D01*
X186150000Y-77783333D01*
X186150000Y-77983333D01*
X186116666Y-78050000D01*
X186083333Y-78083333D01*
X186016666Y-78116666D01*
X185883333Y-78116666D01*
X185816666Y-78083333D01*
X186550000Y-78116666D02*
X186483333Y-78083333D01*
X186450000Y-78016666D01*
X186450000Y-77416666D01*
X187083333Y-78083333D02*
X187016666Y-78116666D01*
X186883333Y-78116666D01*
X186816666Y-78083333D01*
X186783333Y-78016666D01*
X186783333Y-77750000D01*
X186816666Y-77683333D01*
X186883333Y-77650000D01*
X187016666Y-77650000D01*
X187083333Y-77683333D01*
X187116666Y-77750000D01*
X187116666Y-77816666D01*
X186783333Y-77883333D01*
X187316666Y-77650000D02*
X187583333Y-77650000D01*
X187416666Y-77416666D02*
X187416666Y-78016666D01*
X187450000Y-78083333D01*
X187516666Y-78116666D01*
X187583333Y-78116666D01*
X188083333Y-78083333D02*
X188016666Y-78116666D01*
X187883333Y-78116666D01*
X187816666Y-78083333D01*
X187783333Y-78016666D01*
X187783333Y-77750000D01*
X187816666Y-77683333D01*
X187883333Y-77650000D01*
X188016666Y-77650000D01*
X188083333Y-77683333D01*
X188116666Y-77750000D01*
X188116666Y-77816666D01*
X187783333Y-77883333D01*
X188383333Y-78083333D02*
X188450000Y-78116666D01*
X188583333Y-78116666D01*
X188650000Y-78083333D01*
X188683333Y-78016666D01*
X188683333Y-77983333D01*
X188650000Y-77916666D01*
X188583333Y-77883333D01*
X188483333Y-77883333D01*
X188416666Y-77850000D01*
X188383333Y-77783333D01*
X188383333Y-77750000D01*
X188416666Y-77683333D01*
X188483333Y-77650000D01*
X188583333Y-77650000D01*
X188650000Y-77683333D01*
X188883333Y-77650000D02*
X189150000Y-77650000D01*
X188983333Y-77416666D02*
X188983333Y-78016666D01*
X189016666Y-78083333D01*
X189083333Y-78116666D01*
X189150000Y-78116666D01*
X189650000Y-78083333D02*
X189583333Y-78116666D01*
X189450000Y-78116666D01*
X189383333Y-78083333D01*
X189350000Y-78016666D01*
X189350000Y-77750000D01*
X189383333Y-77683333D01*
X189450000Y-77650000D01*
X189583333Y-77650000D01*
X189650000Y-77683333D01*
X189683333Y-77750000D01*
X189683333Y-77816666D01*
X189350000Y-77883333D01*
X189983333Y-78116666D02*
X189983333Y-77650000D01*
X189983333Y-77783333D02*
X190016666Y-77716666D01*
X190050000Y-77683333D01*
X190116666Y-77650000D01*
X190183333Y-77650000D01*
D12*
X164857142Y-71414285D02*
X165257142Y-71414285D01*
X165428571Y-72042857D02*
X164857142Y-72042857D01*
X164857142Y-70842857D01*
X165428571Y-70842857D01*
X166457142Y-71242857D02*
X166457142Y-72042857D01*
X165942857Y-71242857D02*
X165942857Y-71871428D01*
X166000000Y-71985714D01*
X166114285Y-72042857D01*
X166285714Y-72042857D01*
X166400000Y-71985714D01*
X166457142Y-71928571D01*
X167028571Y-72042857D02*
X167028571Y-71242857D01*
X167028571Y-71471428D02*
X167085714Y-71357142D01*
X167142857Y-71300000D01*
X167257142Y-71242857D01*
X167371428Y-71242857D01*
X167942857Y-72042857D02*
X167828571Y-71985714D01*
X167771428Y-71928571D01*
X167714285Y-71814285D01*
X167714285Y-71471428D01*
X167771428Y-71357142D01*
X167828571Y-71300000D01*
X167942857Y-71242857D01*
X168114285Y-71242857D01*
X168228571Y-71300000D01*
X168285714Y-71357142D01*
X168342857Y-71471428D01*
X168342857Y-71814285D01*
X168285714Y-71928571D01*
X168228571Y-71985714D01*
X168114285Y-72042857D01*
X167942857Y-72042857D01*
X168857142Y-72042857D02*
X168857142Y-71242857D01*
X168857142Y-71471428D02*
X168914285Y-71357142D01*
X168971428Y-71300000D01*
X169085714Y-71242857D01*
X169200000Y-71242857D01*
X170114285Y-72042857D02*
X170114285Y-71414285D01*
X170057142Y-71300000D01*
X169942857Y-71242857D01*
X169714285Y-71242857D01*
X169600000Y-71300000D01*
X170114285Y-71985714D02*
X170000000Y-72042857D01*
X169714285Y-72042857D01*
X169600000Y-71985714D01*
X169542857Y-71871428D01*
X169542857Y-71757142D01*
X169600000Y-71642857D01*
X169714285Y-71585714D01*
X170000000Y-71585714D01*
X170114285Y-71528571D01*
X171200000Y-71985714D02*
X171085714Y-72042857D01*
X170857142Y-72042857D01*
X170742857Y-71985714D01*
X170685714Y-71928571D01*
X170628571Y-71814285D01*
X170628571Y-71471428D01*
X170685714Y-71357142D01*
X170742857Y-71300000D01*
X170857142Y-71242857D01*
X171085714Y-71242857D01*
X171200000Y-71300000D01*
X171714285Y-72042857D02*
X171714285Y-70842857D01*
X171828571Y-71585714D02*
X172171428Y-72042857D01*
X172171428Y-71242857D02*
X171714285Y-71700000D01*
X173542857Y-70785714D02*
X172514285Y-72328571D01*
X173942857Y-72042857D02*
X173942857Y-70842857D01*
X174628571Y-72042857D02*
X174114285Y-71357142D01*
X174628571Y-70842857D02*
X173942857Y-71528571D01*
X175314285Y-72042857D02*
X175200000Y-71985714D01*
X175142857Y-71928571D01*
X175085714Y-71814285D01*
X175085714Y-71471428D01*
X175142857Y-71357142D01*
X175200000Y-71300000D01*
X175314285Y-71242857D01*
X175485714Y-71242857D01*
X175600000Y-71300000D01*
X175657142Y-71357142D01*
X175714285Y-71471428D01*
X175714285Y-71814285D01*
X175657142Y-71928571D01*
X175600000Y-71985714D01*
X175485714Y-72042857D01*
X175314285Y-72042857D01*
X176171428Y-71985714D02*
X176285714Y-72042857D01*
X176514285Y-72042857D01*
X176628571Y-71985714D01*
X176685714Y-71871428D01*
X176685714Y-71814285D01*
X176628571Y-71700000D01*
X176514285Y-71642857D01*
X176342857Y-71642857D01*
X176228571Y-71585714D01*
X176171428Y-71471428D01*
X176171428Y-71414285D01*
X176228571Y-71300000D01*
X176342857Y-71242857D01*
X176514285Y-71242857D01*
X176628571Y-71300000D01*
X177200000Y-72042857D02*
X177200000Y-71242857D01*
X177200000Y-71357142D02*
X177257142Y-71300000D01*
X177371428Y-71242857D01*
X177542857Y-71242857D01*
X177657142Y-71300000D01*
X177714285Y-71414285D01*
X177714285Y-72042857D01*
X177714285Y-71414285D02*
X177771428Y-71300000D01*
X177885714Y-71242857D01*
X178057142Y-71242857D01*
X178171428Y-71300000D01*
X178228571Y-71414285D01*
X178228571Y-72042857D01*
X178971428Y-72042857D02*
X178857142Y-71985714D01*
X178800000Y-71928571D01*
X178742857Y-71814285D01*
X178742857Y-71471428D01*
X178800000Y-71357142D01*
X178857142Y-71300000D01*
X178971428Y-71242857D01*
X179142857Y-71242857D01*
X179257142Y-71300000D01*
X179314285Y-71357142D01*
X179371428Y-71471428D01*
X179371428Y-71814285D01*
X179314285Y-71928571D01*
X179257142Y-71985714D01*
X179142857Y-72042857D01*
X178971428Y-72042857D01*
X181314285Y-71985714D02*
X181200000Y-72042857D01*
X180971428Y-72042857D01*
X180857142Y-71985714D01*
X180800000Y-71928571D01*
X180742857Y-71814285D01*
X180742857Y-71471428D01*
X180800000Y-71357142D01*
X180857142Y-71300000D01*
X180971428Y-71242857D01*
X181200000Y-71242857D01*
X181314285Y-71300000D01*
X182342857Y-72042857D02*
X182342857Y-71414285D01*
X182285714Y-71300000D01*
X182171428Y-71242857D01*
X181942857Y-71242857D01*
X181828571Y-71300000D01*
X182342857Y-71985714D02*
X182228571Y-72042857D01*
X181942857Y-72042857D01*
X181828571Y-71985714D01*
X181771428Y-71871428D01*
X181771428Y-71757142D01*
X181828571Y-71642857D01*
X181942857Y-71585714D01*
X182228571Y-71585714D01*
X182342857Y-71528571D01*
X182914285Y-72042857D02*
X182914285Y-70842857D01*
X182914285Y-71300000D02*
X183028571Y-71242857D01*
X183257142Y-71242857D01*
X183371428Y-71300000D01*
X183428571Y-71357142D01*
X183485714Y-71471428D01*
X183485714Y-71814285D01*
X183428571Y-71928571D01*
X183371428Y-71985714D01*
X183257142Y-72042857D01*
X183028571Y-72042857D01*
X182914285Y-71985714D01*
X184171428Y-72042857D02*
X184057142Y-71985714D01*
X184000000Y-71871428D01*
X184000000Y-70842857D01*
X185085714Y-71985714D02*
X184971428Y-72042857D01*
X184742857Y-72042857D01*
X184628571Y-71985714D01*
X184571428Y-71871428D01*
X184571428Y-71414285D01*
X184628571Y-71300000D01*
X184742857Y-71242857D01*
X184971428Y-71242857D01*
X185085714Y-71300000D01*
X185142857Y-71414285D01*
X185142857Y-71528571D01*
X184571428Y-71642857D01*
X186400000Y-71242857D02*
X186857142Y-71242857D01*
X186571428Y-70842857D02*
X186571428Y-71871428D01*
X186628571Y-71985714D01*
X186742857Y-72042857D01*
X186857142Y-72042857D01*
X187714285Y-71985714D02*
X187600000Y-72042857D01*
X187371428Y-72042857D01*
X187257142Y-71985714D01*
X187200000Y-71871428D01*
X187200000Y-71414285D01*
X187257142Y-71300000D01*
X187371428Y-71242857D01*
X187600000Y-71242857D01*
X187714285Y-71300000D01*
X187771428Y-71414285D01*
X187771428Y-71528571D01*
X187200000Y-71642857D01*
X188228571Y-71985714D02*
X188342857Y-72042857D01*
X188571428Y-72042857D01*
X188685714Y-71985714D01*
X188742857Y-71871428D01*
X188742857Y-71814285D01*
X188685714Y-71700000D01*
X188571428Y-71642857D01*
X188400000Y-71642857D01*
X188285714Y-71585714D01*
X188228571Y-71471428D01*
X188228571Y-71414285D01*
X188285714Y-71300000D01*
X188400000Y-71242857D01*
X188571428Y-71242857D01*
X188685714Y-71300000D01*
X189085714Y-71242857D02*
X189542857Y-71242857D01*
X189257142Y-70842857D02*
X189257142Y-71871428D01*
X189314285Y-71985714D01*
X189428571Y-72042857D01*
X189542857Y-72042857D01*
X190400000Y-71985714D02*
X190285714Y-72042857D01*
X190057142Y-72042857D01*
X189942857Y-71985714D01*
X189885714Y-71871428D01*
X189885714Y-71414285D01*
X189942857Y-71300000D01*
X190057142Y-71242857D01*
X190285714Y-71242857D01*
X190400000Y-71300000D01*
X190457142Y-71414285D01*
X190457142Y-71528571D01*
X189885714Y-71642857D01*
X190971428Y-72042857D02*
X190971428Y-71242857D01*
X190971428Y-71471428D02*
X191028571Y-71357142D01*
X191085714Y-71300000D01*
X191200000Y-71242857D01*
X191314285Y-71242857D01*
D13*
%TO.C,J6*%
X135830000Y-66170000D02*
X135830000Y-68830000D01*
X135830000Y-66170000D02*
X128150000Y-66170000D01*
X128150000Y-66170000D02*
X128150000Y-68830000D01*
X135830000Y-68830000D02*
X128150000Y-68830000D01*
X138430000Y-68830000D02*
X137100000Y-68830000D01*
X138430000Y-67500000D02*
X138430000Y-68830000D01*
%TO.C,U1*%
X96190000Y-70330000D02*
X97440000Y-70330000D01*
X97440000Y-70330000D02*
X97440000Y-49890000D01*
X97440000Y-49890000D02*
X92940000Y-49890000D01*
X92940000Y-49890000D02*
X92940000Y-70330000D01*
X92940000Y-70330000D02*
X94190000Y-70330000D01*
X100440000Y-70390000D02*
X100440000Y-49830000D01*
X100440000Y-49830000D02*
X89940000Y-49830000D01*
X89940000Y-49830000D02*
X89940000Y-70390000D01*
X89940000Y-70390000D02*
X100440000Y-70390000D01*
X94190000Y-70330000D02*
G75*
G02*
X96190000Y-70330000I1000000J0D01*
G01*
%TO.C,R17*%
X106540000Y-70960000D02*
X106540000Y-70630000D01*
X106540000Y-70630000D02*
X113080000Y-70630000D01*
X113080000Y-70630000D02*
X113080000Y-70960000D01*
X106540000Y-73040000D02*
X106540000Y-73370000D01*
X106540000Y-73370000D02*
X113080000Y-73370000D01*
X113080000Y-73370000D02*
X113080000Y-73040000D01*
%TO.C,R16*%
X106540000Y-65960000D02*
X106540000Y-65630000D01*
X106540000Y-65630000D02*
X113080000Y-65630000D01*
X113080000Y-65630000D02*
X113080000Y-65960000D01*
X106540000Y-68040000D02*
X106540000Y-68370000D01*
X106540000Y-68370000D02*
X113080000Y-68370000D01*
X113080000Y-68370000D02*
X113080000Y-68040000D01*
%TO.C,R15*%
X106540000Y-60960000D02*
X106540000Y-60630000D01*
X106540000Y-60630000D02*
X113080000Y-60630000D01*
X113080000Y-60630000D02*
X113080000Y-60960000D01*
X106540000Y-63040000D02*
X106540000Y-63370000D01*
X106540000Y-63370000D02*
X113080000Y-63370000D01*
X113080000Y-63370000D02*
X113080000Y-63040000D01*
%TO.C,R14*%
X106540000Y-55960000D02*
X106540000Y-55630000D01*
X106540000Y-55630000D02*
X113080000Y-55630000D01*
X113080000Y-55630000D02*
X113080000Y-55960000D01*
X106540000Y-58040000D02*
X106540000Y-58370000D01*
X106540000Y-58370000D02*
X113080000Y-58370000D01*
X113080000Y-58370000D02*
X113080000Y-58040000D01*
%TO.C,R13*%
X106540000Y-50960000D02*
X106540000Y-50630000D01*
X106540000Y-50630000D02*
X113080000Y-50630000D01*
X113080000Y-50630000D02*
X113080000Y-50960000D01*
X106540000Y-53040000D02*
X106540000Y-53370000D01*
X106540000Y-53370000D02*
X113080000Y-53370000D01*
X113080000Y-53370000D02*
X113080000Y-53040000D01*
%TO.C,R12*%
X106540000Y-45960000D02*
X106540000Y-45630000D01*
X106540000Y-45630000D02*
X113080000Y-45630000D01*
X113080000Y-45630000D02*
X113080000Y-45960000D01*
X106540000Y-48040000D02*
X106540000Y-48370000D01*
X106540000Y-48370000D02*
X113080000Y-48370000D01*
X113080000Y-48370000D02*
X113080000Y-48040000D01*
%TO.C,R11*%
X106540000Y-40960000D02*
X106540000Y-40630000D01*
X106540000Y-40630000D02*
X113080000Y-40630000D01*
X113080000Y-40630000D02*
X113080000Y-40960000D01*
X106540000Y-43040000D02*
X106540000Y-43370000D01*
X106540000Y-43370000D02*
X113080000Y-43370000D01*
X113080000Y-43370000D02*
X113080000Y-43040000D01*
%TO.C,R10*%
X106540000Y-35960000D02*
X106540000Y-35630000D01*
X106540000Y-35630000D02*
X113080000Y-35630000D01*
X113080000Y-35630000D02*
X113080000Y-35960000D01*
X106540000Y-38040000D02*
X106540000Y-38370000D01*
X106540000Y-38370000D02*
X113080000Y-38370000D01*
X113080000Y-38370000D02*
X113080000Y-38040000D01*
%TO.C,R9*%
X160460000Y-38040000D02*
X160460000Y-38370000D01*
X160460000Y-38370000D02*
X153920000Y-38370000D01*
X153920000Y-38370000D02*
X153920000Y-38040000D01*
X160460000Y-35960000D02*
X160460000Y-35630000D01*
X160460000Y-35630000D02*
X153920000Y-35630000D01*
X153920000Y-35630000D02*
X153920000Y-35960000D01*
%TO.C,R8*%
X160460000Y-43040000D02*
X160460000Y-43370000D01*
X160460000Y-43370000D02*
X153920000Y-43370000D01*
X153920000Y-43370000D02*
X153920000Y-43040000D01*
X160460000Y-40960000D02*
X160460000Y-40630000D01*
X160460000Y-40630000D02*
X153920000Y-40630000D01*
X153920000Y-40630000D02*
X153920000Y-40960000D01*
%TO.C,R7*%
X160460000Y-48040000D02*
X160460000Y-48370000D01*
X160460000Y-48370000D02*
X153920000Y-48370000D01*
X153920000Y-48370000D02*
X153920000Y-48040000D01*
X160460000Y-45960000D02*
X160460000Y-45630000D01*
X160460000Y-45630000D02*
X153920000Y-45630000D01*
X153920000Y-45630000D02*
X153920000Y-45960000D01*
%TO.C,R6*%
X160460000Y-53040000D02*
X160460000Y-53370000D01*
X160460000Y-53370000D02*
X153920000Y-53370000D01*
X153920000Y-53370000D02*
X153920000Y-53040000D01*
X160460000Y-50960000D02*
X160460000Y-50630000D01*
X160460000Y-50630000D02*
X153920000Y-50630000D01*
X153920000Y-50630000D02*
X153920000Y-50960000D01*
%TO.C,R5*%
X160460000Y-58040000D02*
X160460000Y-58370000D01*
X160460000Y-58370000D02*
X153920000Y-58370000D01*
X153920000Y-58370000D02*
X153920000Y-58040000D01*
X160460000Y-55960000D02*
X160460000Y-55630000D01*
X160460000Y-55630000D02*
X153920000Y-55630000D01*
X153920000Y-55630000D02*
X153920000Y-55960000D01*
%TO.C,R4*%
X160460000Y-63040000D02*
X160460000Y-63370000D01*
X160460000Y-63370000D02*
X153920000Y-63370000D01*
X153920000Y-63370000D02*
X153920000Y-63040000D01*
X160460000Y-60960000D02*
X160460000Y-60630000D01*
X160460000Y-60630000D02*
X153920000Y-60630000D01*
X153920000Y-60630000D02*
X153920000Y-60960000D01*
%TO.C,R3*%
X160460000Y-68040000D02*
X160460000Y-68370000D01*
X160460000Y-68370000D02*
X153920000Y-68370000D01*
X153920000Y-68370000D02*
X153920000Y-68040000D01*
X160460000Y-65960000D02*
X160460000Y-65630000D01*
X160460000Y-65630000D02*
X153920000Y-65630000D01*
X153920000Y-65630000D02*
X153920000Y-65960000D01*
%TO.C,R2*%
X160460000Y-73040000D02*
X160460000Y-73370000D01*
X160460000Y-73370000D02*
X153920000Y-73370000D01*
X153920000Y-73370000D02*
X153920000Y-73040000D01*
X160460000Y-70960000D02*
X160460000Y-70630000D01*
X160460000Y-70630000D02*
X153920000Y-70630000D01*
X153920000Y-70630000D02*
X153920000Y-70960000D01*
%TO.C,R1*%
X160460000Y-78040000D02*
X160460000Y-78370000D01*
X160460000Y-78370000D02*
X153920000Y-78370000D01*
X153920000Y-78370000D02*
X153920000Y-78040000D01*
X160460000Y-75960000D02*
X160460000Y-75630000D01*
X160460000Y-75630000D02*
X153920000Y-75630000D01*
X153920000Y-75630000D02*
X153920000Y-75960000D01*
%TO.C,J5*%
X135830000Y-70170000D02*
X135830000Y-72830000D01*
X135830000Y-70170000D02*
X128150000Y-70170000D01*
X128150000Y-70170000D02*
X128150000Y-72830000D01*
X135830000Y-72830000D02*
X128150000Y-72830000D01*
X138430000Y-72830000D02*
X137100000Y-72830000D01*
X138430000Y-71500000D02*
X138430000Y-72830000D01*
%TO.C,J4*%
X133290000Y-64210000D02*
X124170000Y-64210000D01*
X124170000Y-64210000D02*
X124170000Y-36010000D01*
X124170000Y-36010000D02*
X133290000Y-36010000D01*
X133290000Y-36010000D02*
X133290000Y-64210000D01*
X133290000Y-52160000D02*
X131980000Y-52160000D01*
X131980000Y-52160000D02*
X131980000Y-62910000D01*
X131980000Y-62910000D02*
X125480000Y-62910000D01*
X125480000Y-62910000D02*
X125480000Y-37310000D01*
X125480000Y-37310000D02*
X131980000Y-37310000D01*
X131980000Y-37310000D02*
X131980000Y-48060000D01*
X131980000Y-48060000D02*
X131980000Y-48060000D01*
X131980000Y-48060000D02*
X133290000Y-48060000D01*
X133680000Y-59000000D02*
X134680000Y-59500000D01*
X134680000Y-59500000D02*
X134680000Y-58500000D01*
X134680000Y-58500000D02*
X133680000Y-59000000D01*
%TO.C,J3*%
X138055000Y-64350000D02*
X138055000Y-43490000D01*
X138055000Y-43490000D02*
X147405000Y-43490000D01*
X147405000Y-43490000D02*
X147405000Y-64350000D01*
X147405000Y-64350000D02*
X138055000Y-64350000D01*
X147150000Y-64100000D02*
X138300000Y-64100000D01*
X138300000Y-64100000D02*
X138300000Y-43750000D01*
X138300000Y-43750000D02*
X147150000Y-43750000D01*
X147150000Y-43750000D02*
X147150000Y-64100000D01*
X147150000Y-64100000D02*
X146600000Y-63550000D01*
X146600000Y-63550000D02*
X138850000Y-63550000D01*
X138850000Y-63550000D02*
X138300000Y-64100000D01*
X138850000Y-63550000D02*
X138850000Y-44300000D01*
X138850000Y-44300000D02*
X138300000Y-43750000D01*
X138850000Y-44300000D02*
X146600000Y-44300000D01*
X146600000Y-44300000D02*
X147100000Y-43800000D01*
X146600000Y-44300000D02*
X146600000Y-51650000D01*
X146600000Y-51670000D02*
X147110000Y-51670000D01*
X147100000Y-56170000D02*
X146620000Y-56170000D01*
X146600000Y-56170000D02*
X146600000Y-63550000D01*
%TO.C,J2*%
X176290000Y-64210000D02*
X167170000Y-64210000D01*
X167170000Y-64210000D02*
X167170000Y-36010000D01*
X167170000Y-36010000D02*
X176290000Y-36010000D01*
X176290000Y-36010000D02*
X176290000Y-64210000D01*
X176290000Y-52160000D02*
X174980000Y-52160000D01*
X174980000Y-52160000D02*
X174980000Y-62910000D01*
X174980000Y-62910000D02*
X168480000Y-62910000D01*
X168480000Y-62910000D02*
X168480000Y-37310000D01*
X168480000Y-37310000D02*
X174980000Y-37310000D01*
X174980000Y-37310000D02*
X174980000Y-48060000D01*
X174980000Y-48060000D02*
X174980000Y-48060000D01*
X174980000Y-48060000D02*
X176290000Y-48060000D01*
X176680000Y-59000000D02*
X177680000Y-59500000D01*
X177680000Y-59500000D02*
X177680000Y-58500000D01*
X177680000Y-58500000D02*
X176680000Y-59000000D01*
%TO.C,J1*%
X181055000Y-64350000D02*
X181055000Y-43490000D01*
X181055000Y-43490000D02*
X190405000Y-43490000D01*
X190405000Y-43490000D02*
X190405000Y-64350000D01*
X190405000Y-64350000D02*
X181055000Y-64350000D01*
X190150000Y-64100000D02*
X181300000Y-64100000D01*
X181300000Y-64100000D02*
X181300000Y-43750000D01*
X181300000Y-43750000D02*
X190150000Y-43750000D01*
X190150000Y-43750000D02*
X190150000Y-64100000D01*
X190150000Y-64100000D02*
X189600000Y-63550000D01*
X189600000Y-63550000D02*
X181850000Y-63550000D01*
X181850000Y-63550000D02*
X181300000Y-64100000D01*
X181850000Y-63550000D02*
X181850000Y-44300000D01*
X181850000Y-44300000D02*
X181300000Y-43750000D01*
X181850000Y-44300000D02*
X189600000Y-44300000D01*
X189600000Y-44300000D02*
X190100000Y-43800000D01*
X189600000Y-44300000D02*
X189600000Y-51650000D01*
X189600000Y-51670000D02*
X190110000Y-51670000D01*
X190100000Y-56170000D02*
X189620000Y-56170000D01*
X189600000Y-56170000D02*
X189600000Y-63550000D01*
%TO.C,C1*%
X92121000Y-72080000D02*
X93379000Y-72080000D01*
X92121000Y-73920000D02*
X93379000Y-73920000D01*
%TO.C,A1*%
X82730000Y-77730000D02*
X82730000Y-80270000D01*
X82730000Y-80270000D02*
X85400000Y-80270000D01*
X85400000Y-77730000D02*
X85400000Y-39500000D01*
X85400000Y-82940000D02*
X85400000Y-80270000D01*
X70030000Y-80270000D02*
X67360000Y-80270000D01*
X70030000Y-80270000D02*
X70030000Y-42170000D01*
X70030000Y-42170000D02*
X67360000Y-42170000D01*
X82730000Y-77730000D02*
X85400000Y-77730000D01*
X82730000Y-77730000D02*
X82730000Y-42170000D01*
X82730000Y-42170000D02*
X85400000Y-42170000D01*
X85400000Y-39500000D02*
X67360000Y-39500000D01*
X67360000Y-39500000D02*
X67360000Y-82940000D01*
X67360000Y-82940000D02*
X85400000Y-82940000D01*
%TO.C,J6*%
D14*
X139322380Y-67833333D02*
X140036666Y-67833333D01*
X140179523Y-67880952D01*
X140274761Y-67976190D01*
X140322380Y-68119047D01*
X140322380Y-68214285D01*
X139322380Y-66928571D02*
X139322380Y-67119047D01*
X139370000Y-67214285D01*
X139417619Y-67261904D01*
X139560476Y-67357142D01*
X139750952Y-67404761D01*
X140131904Y-67404761D01*
X140227142Y-67357142D01*
X140274761Y-67309523D01*
X140322380Y-67214285D01*
X140322380Y-67023809D01*
X140274761Y-66928571D01*
X140227142Y-66880952D01*
X140131904Y-66833333D01*
X139893809Y-66833333D01*
X139798571Y-66880952D01*
X139750952Y-66928571D01*
X139703333Y-67023809D01*
X139703333Y-67214285D01*
X139750952Y-67309523D01*
X139798571Y-67357142D01*
X139893809Y-67404761D01*
%TO.C,U1*%
X94428095Y-70782380D02*
X94428095Y-71591904D01*
X94475714Y-71687142D01*
X94523333Y-71734761D01*
X94618571Y-71782380D01*
X94809047Y-71782380D01*
X94904285Y-71734761D01*
X94951904Y-71687142D01*
X94999523Y-71591904D01*
X94999523Y-70782380D01*
X95999523Y-71782380D02*
X95428095Y-71782380D01*
X95713809Y-71782380D02*
X95713809Y-70782380D01*
X95618571Y-70925238D01*
X95523333Y-71020476D01*
X95428095Y-71068095D01*
X93761904Y-48785714D02*
X93761904Y-49452380D01*
X93523809Y-48404761D02*
X93285714Y-49119047D01*
X93904761Y-49119047D01*
X94476190Y-48452380D02*
X94571428Y-48452380D01*
X94666666Y-48500000D01*
X94714285Y-48547619D01*
X94761904Y-48642857D01*
X94809523Y-48833333D01*
X94809523Y-49071428D01*
X94761904Y-49261904D01*
X94714285Y-49357142D01*
X94666666Y-49404761D01*
X94571428Y-49452380D01*
X94476190Y-49452380D01*
X94380952Y-49404761D01*
X94333333Y-49357142D01*
X94285714Y-49261904D01*
X94238095Y-49071428D01*
X94238095Y-48833333D01*
X94285714Y-48642857D01*
X94333333Y-48547619D01*
X94380952Y-48500000D01*
X94476190Y-48452380D01*
X95714285Y-48452380D02*
X95238095Y-48452380D01*
X95190476Y-48928571D01*
X95238095Y-48880952D01*
X95333333Y-48833333D01*
X95571428Y-48833333D01*
X95666666Y-48880952D01*
X95714285Y-48928571D01*
X95761904Y-49023809D01*
X95761904Y-49261904D01*
X95714285Y-49357142D01*
X95666666Y-49404761D01*
X95571428Y-49452380D01*
X95333333Y-49452380D01*
X95238095Y-49404761D01*
X95190476Y-49357142D01*
X96714285Y-49452380D02*
X96142857Y-49452380D01*
X96428571Y-49452380D02*
X96428571Y-48452380D01*
X96333333Y-48595238D01*
X96238095Y-48690476D01*
X96142857Y-48738095D01*
%TO.C,R17*%
X106517857Y-69839285D02*
X106267857Y-69482142D01*
X106089285Y-69839285D02*
X106089285Y-69089285D01*
X106375000Y-69089285D01*
X106446428Y-69125000D01*
X106482142Y-69160714D01*
X106517857Y-69232142D01*
X106517857Y-69339285D01*
X106482142Y-69410714D01*
X106446428Y-69446428D01*
X106375000Y-69482142D01*
X106089285Y-69482142D01*
X107232142Y-69839285D02*
X106803571Y-69839285D01*
X107017857Y-69839285D02*
X107017857Y-69089285D01*
X106946428Y-69196428D01*
X106875000Y-69267857D01*
X106803571Y-69303571D01*
X107482142Y-69089285D02*
X107982142Y-69089285D01*
X107660714Y-69839285D01*
X112482142Y-69839285D02*
X112053571Y-69839285D01*
X112267857Y-69839285D02*
X112267857Y-69089285D01*
X112196428Y-69196428D01*
X112125000Y-69267857D01*
X112053571Y-69303571D01*
X112946428Y-69089285D02*
X113017857Y-69089285D01*
X113089285Y-69125000D01*
X113125000Y-69160714D01*
X113160714Y-69232142D01*
X113196428Y-69375000D01*
X113196428Y-69553571D01*
X113160714Y-69696428D01*
X113125000Y-69767857D01*
X113089285Y-69803571D01*
X113017857Y-69839285D01*
X112946428Y-69839285D01*
X112875000Y-69803571D01*
X112839285Y-69767857D01*
X112803571Y-69696428D01*
X112767857Y-69553571D01*
X112767857Y-69375000D01*
X112803571Y-69232142D01*
X112839285Y-69160714D01*
X112875000Y-69125000D01*
X112946428Y-69089285D01*
X113517857Y-69839285D02*
X113517857Y-69089285D01*
X113946428Y-69839285D02*
X113625000Y-69410714D01*
X113946428Y-69089285D02*
X113517857Y-69517857D01*
%TO.C,R16*%
X106517857Y-64839285D02*
X106267857Y-64482142D01*
X106089285Y-64839285D02*
X106089285Y-64089285D01*
X106375000Y-64089285D01*
X106446428Y-64125000D01*
X106482142Y-64160714D01*
X106517857Y-64232142D01*
X106517857Y-64339285D01*
X106482142Y-64410714D01*
X106446428Y-64446428D01*
X106375000Y-64482142D01*
X106089285Y-64482142D01*
X107232142Y-64839285D02*
X106803571Y-64839285D01*
X107017857Y-64839285D02*
X107017857Y-64089285D01*
X106946428Y-64196428D01*
X106875000Y-64267857D01*
X106803571Y-64303571D01*
X107875000Y-64089285D02*
X107732142Y-64089285D01*
X107660714Y-64125000D01*
X107625000Y-64160714D01*
X107553571Y-64267857D01*
X107517857Y-64410714D01*
X107517857Y-64696428D01*
X107553571Y-64767857D01*
X107589285Y-64803571D01*
X107660714Y-64839285D01*
X107803571Y-64839285D01*
X107875000Y-64803571D01*
X107910714Y-64767857D01*
X107946428Y-64696428D01*
X107946428Y-64517857D01*
X107910714Y-64446428D01*
X107875000Y-64410714D01*
X107803571Y-64375000D01*
X107660714Y-64375000D01*
X107589285Y-64410714D01*
X107553571Y-64446428D01*
X107517857Y-64517857D01*
X112482142Y-64839285D02*
X112053571Y-64839285D01*
X112267857Y-64839285D02*
X112267857Y-64089285D01*
X112196428Y-64196428D01*
X112125000Y-64267857D01*
X112053571Y-64303571D01*
X112946428Y-64089285D02*
X113017857Y-64089285D01*
X113089285Y-64125000D01*
X113125000Y-64160714D01*
X113160714Y-64232142D01*
X113196428Y-64375000D01*
X113196428Y-64553571D01*
X113160714Y-64696428D01*
X113125000Y-64767857D01*
X113089285Y-64803571D01*
X113017857Y-64839285D01*
X112946428Y-64839285D01*
X112875000Y-64803571D01*
X112839285Y-64767857D01*
X112803571Y-64696428D01*
X112767857Y-64553571D01*
X112767857Y-64375000D01*
X112803571Y-64232142D01*
X112839285Y-64160714D01*
X112875000Y-64125000D01*
X112946428Y-64089285D01*
X113517857Y-64839285D02*
X113517857Y-64089285D01*
X113946428Y-64839285D02*
X113625000Y-64410714D01*
X113946428Y-64089285D02*
X113517857Y-64517857D01*
%TO.C,R15*%
X106517857Y-59839285D02*
X106267857Y-59482142D01*
X106089285Y-59839285D02*
X106089285Y-59089285D01*
X106375000Y-59089285D01*
X106446428Y-59125000D01*
X106482142Y-59160714D01*
X106517857Y-59232142D01*
X106517857Y-59339285D01*
X106482142Y-59410714D01*
X106446428Y-59446428D01*
X106375000Y-59482142D01*
X106089285Y-59482142D01*
X107232142Y-59839285D02*
X106803571Y-59839285D01*
X107017857Y-59839285D02*
X107017857Y-59089285D01*
X106946428Y-59196428D01*
X106875000Y-59267857D01*
X106803571Y-59303571D01*
X107910714Y-59089285D02*
X107553571Y-59089285D01*
X107517857Y-59446428D01*
X107553571Y-59410714D01*
X107625000Y-59375000D01*
X107803571Y-59375000D01*
X107875000Y-59410714D01*
X107910714Y-59446428D01*
X107946428Y-59517857D01*
X107946428Y-59696428D01*
X107910714Y-59767857D01*
X107875000Y-59803571D01*
X107803571Y-59839285D01*
X107625000Y-59839285D01*
X107553571Y-59803571D01*
X107517857Y-59767857D01*
X112482142Y-59839285D02*
X112053571Y-59839285D01*
X112267857Y-59839285D02*
X112267857Y-59089285D01*
X112196428Y-59196428D01*
X112125000Y-59267857D01*
X112053571Y-59303571D01*
X112946428Y-59089285D02*
X113017857Y-59089285D01*
X113089285Y-59125000D01*
X113125000Y-59160714D01*
X113160714Y-59232142D01*
X113196428Y-59375000D01*
X113196428Y-59553571D01*
X113160714Y-59696428D01*
X113125000Y-59767857D01*
X113089285Y-59803571D01*
X113017857Y-59839285D01*
X112946428Y-59839285D01*
X112875000Y-59803571D01*
X112839285Y-59767857D01*
X112803571Y-59696428D01*
X112767857Y-59553571D01*
X112767857Y-59375000D01*
X112803571Y-59232142D01*
X112839285Y-59160714D01*
X112875000Y-59125000D01*
X112946428Y-59089285D01*
X113517857Y-59839285D02*
X113517857Y-59089285D01*
X113946428Y-59839285D02*
X113625000Y-59410714D01*
X113946428Y-59089285D02*
X113517857Y-59517857D01*
%TO.C,R14*%
X106517857Y-54839285D02*
X106267857Y-54482142D01*
X106089285Y-54839285D02*
X106089285Y-54089285D01*
X106375000Y-54089285D01*
X106446428Y-54125000D01*
X106482142Y-54160714D01*
X106517857Y-54232142D01*
X106517857Y-54339285D01*
X106482142Y-54410714D01*
X106446428Y-54446428D01*
X106375000Y-54482142D01*
X106089285Y-54482142D01*
X107232142Y-54839285D02*
X106803571Y-54839285D01*
X107017857Y-54839285D02*
X107017857Y-54089285D01*
X106946428Y-54196428D01*
X106875000Y-54267857D01*
X106803571Y-54303571D01*
X107875000Y-54339285D02*
X107875000Y-54839285D01*
X107696428Y-54053571D02*
X107517857Y-54589285D01*
X107982142Y-54589285D01*
X112482142Y-54839285D02*
X112053571Y-54839285D01*
X112267857Y-54839285D02*
X112267857Y-54089285D01*
X112196428Y-54196428D01*
X112125000Y-54267857D01*
X112053571Y-54303571D01*
X112946428Y-54089285D02*
X113017857Y-54089285D01*
X113089285Y-54125000D01*
X113125000Y-54160714D01*
X113160714Y-54232142D01*
X113196428Y-54375000D01*
X113196428Y-54553571D01*
X113160714Y-54696428D01*
X113125000Y-54767857D01*
X113089285Y-54803571D01*
X113017857Y-54839285D01*
X112946428Y-54839285D01*
X112875000Y-54803571D01*
X112839285Y-54767857D01*
X112803571Y-54696428D01*
X112767857Y-54553571D01*
X112767857Y-54375000D01*
X112803571Y-54232142D01*
X112839285Y-54160714D01*
X112875000Y-54125000D01*
X112946428Y-54089285D01*
X113517857Y-54839285D02*
X113517857Y-54089285D01*
X113946428Y-54839285D02*
X113625000Y-54410714D01*
X113946428Y-54089285D02*
X113517857Y-54517857D01*
%TO.C,R13*%
X106517857Y-49839285D02*
X106267857Y-49482142D01*
X106089285Y-49839285D02*
X106089285Y-49089285D01*
X106375000Y-49089285D01*
X106446428Y-49125000D01*
X106482142Y-49160714D01*
X106517857Y-49232142D01*
X106517857Y-49339285D01*
X106482142Y-49410714D01*
X106446428Y-49446428D01*
X106375000Y-49482142D01*
X106089285Y-49482142D01*
X107232142Y-49839285D02*
X106803571Y-49839285D01*
X107017857Y-49839285D02*
X107017857Y-49089285D01*
X106946428Y-49196428D01*
X106875000Y-49267857D01*
X106803571Y-49303571D01*
X107482142Y-49089285D02*
X107946428Y-49089285D01*
X107696428Y-49375000D01*
X107803571Y-49375000D01*
X107875000Y-49410714D01*
X107910714Y-49446428D01*
X107946428Y-49517857D01*
X107946428Y-49696428D01*
X107910714Y-49767857D01*
X107875000Y-49803571D01*
X107803571Y-49839285D01*
X107589285Y-49839285D01*
X107517857Y-49803571D01*
X107482142Y-49767857D01*
X112482142Y-49839285D02*
X112053571Y-49839285D01*
X112267857Y-49839285D02*
X112267857Y-49089285D01*
X112196428Y-49196428D01*
X112125000Y-49267857D01*
X112053571Y-49303571D01*
X112946428Y-49089285D02*
X113017857Y-49089285D01*
X113089285Y-49125000D01*
X113125000Y-49160714D01*
X113160714Y-49232142D01*
X113196428Y-49375000D01*
X113196428Y-49553571D01*
X113160714Y-49696428D01*
X113125000Y-49767857D01*
X113089285Y-49803571D01*
X113017857Y-49839285D01*
X112946428Y-49839285D01*
X112875000Y-49803571D01*
X112839285Y-49767857D01*
X112803571Y-49696428D01*
X112767857Y-49553571D01*
X112767857Y-49375000D01*
X112803571Y-49232142D01*
X112839285Y-49160714D01*
X112875000Y-49125000D01*
X112946428Y-49089285D01*
X113517857Y-49839285D02*
X113517857Y-49089285D01*
X113946428Y-49839285D02*
X113625000Y-49410714D01*
X113946428Y-49089285D02*
X113517857Y-49517857D01*
%TO.C,R12*%
X106517857Y-44839285D02*
X106267857Y-44482142D01*
X106089285Y-44839285D02*
X106089285Y-44089285D01*
X106375000Y-44089285D01*
X106446428Y-44125000D01*
X106482142Y-44160714D01*
X106517857Y-44232142D01*
X106517857Y-44339285D01*
X106482142Y-44410714D01*
X106446428Y-44446428D01*
X106375000Y-44482142D01*
X106089285Y-44482142D01*
X107232142Y-44839285D02*
X106803571Y-44839285D01*
X107017857Y-44839285D02*
X107017857Y-44089285D01*
X106946428Y-44196428D01*
X106875000Y-44267857D01*
X106803571Y-44303571D01*
X107517857Y-44160714D02*
X107553571Y-44125000D01*
X107625000Y-44089285D01*
X107803571Y-44089285D01*
X107875000Y-44125000D01*
X107910714Y-44160714D01*
X107946428Y-44232142D01*
X107946428Y-44303571D01*
X107910714Y-44410714D01*
X107482142Y-44839285D01*
X107946428Y-44839285D01*
X112482142Y-44839285D02*
X112053571Y-44839285D01*
X112267857Y-44839285D02*
X112267857Y-44089285D01*
X112196428Y-44196428D01*
X112125000Y-44267857D01*
X112053571Y-44303571D01*
X112946428Y-44089285D02*
X113017857Y-44089285D01*
X113089285Y-44125000D01*
X113125000Y-44160714D01*
X113160714Y-44232142D01*
X113196428Y-44375000D01*
X113196428Y-44553571D01*
X113160714Y-44696428D01*
X113125000Y-44767857D01*
X113089285Y-44803571D01*
X113017857Y-44839285D01*
X112946428Y-44839285D01*
X112875000Y-44803571D01*
X112839285Y-44767857D01*
X112803571Y-44696428D01*
X112767857Y-44553571D01*
X112767857Y-44375000D01*
X112803571Y-44232142D01*
X112839285Y-44160714D01*
X112875000Y-44125000D01*
X112946428Y-44089285D01*
X113517857Y-44839285D02*
X113517857Y-44089285D01*
X113946428Y-44839285D02*
X113625000Y-44410714D01*
X113946428Y-44089285D02*
X113517857Y-44517857D01*
%TO.C,R11*%
X106517857Y-39839285D02*
X106267857Y-39482142D01*
X106089285Y-39839285D02*
X106089285Y-39089285D01*
X106375000Y-39089285D01*
X106446428Y-39125000D01*
X106482142Y-39160714D01*
X106517857Y-39232142D01*
X106517857Y-39339285D01*
X106482142Y-39410714D01*
X106446428Y-39446428D01*
X106375000Y-39482142D01*
X106089285Y-39482142D01*
X107232142Y-39839285D02*
X106803571Y-39839285D01*
X107017857Y-39839285D02*
X107017857Y-39089285D01*
X106946428Y-39196428D01*
X106875000Y-39267857D01*
X106803571Y-39303571D01*
X107946428Y-39839285D02*
X107517857Y-39839285D01*
X107732142Y-39839285D02*
X107732142Y-39089285D01*
X107660714Y-39196428D01*
X107589285Y-39267857D01*
X107517857Y-39303571D01*
X112482142Y-39839285D02*
X112053571Y-39839285D01*
X112267857Y-39839285D02*
X112267857Y-39089285D01*
X112196428Y-39196428D01*
X112125000Y-39267857D01*
X112053571Y-39303571D01*
X112946428Y-39089285D02*
X113017857Y-39089285D01*
X113089285Y-39125000D01*
X113125000Y-39160714D01*
X113160714Y-39232142D01*
X113196428Y-39375000D01*
X113196428Y-39553571D01*
X113160714Y-39696428D01*
X113125000Y-39767857D01*
X113089285Y-39803571D01*
X113017857Y-39839285D01*
X112946428Y-39839285D01*
X112875000Y-39803571D01*
X112839285Y-39767857D01*
X112803571Y-39696428D01*
X112767857Y-39553571D01*
X112767857Y-39375000D01*
X112803571Y-39232142D01*
X112839285Y-39160714D01*
X112875000Y-39125000D01*
X112946428Y-39089285D01*
X113517857Y-39839285D02*
X113517857Y-39089285D01*
X113946428Y-39839285D02*
X113625000Y-39410714D01*
X113946428Y-39089285D02*
X113517857Y-39517857D01*
%TO.C,R10*%
X106517857Y-34839285D02*
X106267857Y-34482142D01*
X106089285Y-34839285D02*
X106089285Y-34089285D01*
X106375000Y-34089285D01*
X106446428Y-34125000D01*
X106482142Y-34160714D01*
X106517857Y-34232142D01*
X106517857Y-34339285D01*
X106482142Y-34410714D01*
X106446428Y-34446428D01*
X106375000Y-34482142D01*
X106089285Y-34482142D01*
X107232142Y-34839285D02*
X106803571Y-34839285D01*
X107017857Y-34839285D02*
X107017857Y-34089285D01*
X106946428Y-34196428D01*
X106875000Y-34267857D01*
X106803571Y-34303571D01*
X107696428Y-34089285D02*
X107767857Y-34089285D01*
X107839285Y-34125000D01*
X107875000Y-34160714D01*
X107910714Y-34232142D01*
X107946428Y-34375000D01*
X107946428Y-34553571D01*
X107910714Y-34696428D01*
X107875000Y-34767857D01*
X107839285Y-34803571D01*
X107767857Y-34839285D01*
X107696428Y-34839285D01*
X107625000Y-34803571D01*
X107589285Y-34767857D01*
X107553571Y-34696428D01*
X107517857Y-34553571D01*
X107517857Y-34375000D01*
X107553571Y-34232142D01*
X107589285Y-34160714D01*
X107625000Y-34125000D01*
X107696428Y-34089285D01*
X112482142Y-34839285D02*
X112053571Y-34839285D01*
X112267857Y-34839285D02*
X112267857Y-34089285D01*
X112196428Y-34196428D01*
X112125000Y-34267857D01*
X112053571Y-34303571D01*
X112946428Y-34089285D02*
X113017857Y-34089285D01*
X113089285Y-34125000D01*
X113125000Y-34160714D01*
X113160714Y-34232142D01*
X113196428Y-34375000D01*
X113196428Y-34553571D01*
X113160714Y-34696428D01*
X113125000Y-34767857D01*
X113089285Y-34803571D01*
X113017857Y-34839285D01*
X112946428Y-34839285D01*
X112875000Y-34803571D01*
X112839285Y-34767857D01*
X112803571Y-34696428D01*
X112767857Y-34553571D01*
X112767857Y-34375000D01*
X112803571Y-34232142D01*
X112839285Y-34160714D01*
X112875000Y-34125000D01*
X112946428Y-34089285D01*
X113517857Y-34839285D02*
X113517857Y-34089285D01*
X113946428Y-34839285D02*
X113625000Y-34410714D01*
X113946428Y-34089285D02*
X113517857Y-34517857D01*
%TO.C,R9*%
X159875000Y-39839285D02*
X159625000Y-39482142D01*
X159446428Y-39839285D02*
X159446428Y-39089285D01*
X159732142Y-39089285D01*
X159803571Y-39125000D01*
X159839285Y-39160714D01*
X159875000Y-39232142D01*
X159875000Y-39339285D01*
X159839285Y-39410714D01*
X159803571Y-39446428D01*
X159732142Y-39482142D01*
X159446428Y-39482142D01*
X160232142Y-39839285D02*
X160375000Y-39839285D01*
X160446428Y-39803571D01*
X160482142Y-39767857D01*
X160553571Y-39660714D01*
X160589285Y-39517857D01*
X160589285Y-39232142D01*
X160553571Y-39160714D01*
X160517857Y-39125000D01*
X160446428Y-39089285D01*
X160303571Y-39089285D01*
X160232142Y-39125000D01*
X160196428Y-39160714D01*
X160160714Y-39232142D01*
X160160714Y-39410714D01*
X160196428Y-39482142D01*
X160232142Y-39517857D01*
X160303571Y-39553571D01*
X160446428Y-39553571D01*
X160517857Y-39517857D01*
X160553571Y-39482142D01*
X160589285Y-39410714D01*
X153839285Y-39839285D02*
X153410714Y-39839285D01*
X153625000Y-39839285D02*
X153625000Y-39089285D01*
X153553571Y-39196428D01*
X153482142Y-39267857D01*
X153410714Y-39303571D01*
X154160714Y-39839285D02*
X154160714Y-39089285D01*
X154589285Y-39839285D02*
X154267857Y-39410714D01*
X154589285Y-39089285D02*
X154160714Y-39517857D01*
%TO.C,R8*%
X159875000Y-44839285D02*
X159625000Y-44482142D01*
X159446428Y-44839285D02*
X159446428Y-44089285D01*
X159732142Y-44089285D01*
X159803571Y-44125000D01*
X159839285Y-44160714D01*
X159875000Y-44232142D01*
X159875000Y-44339285D01*
X159839285Y-44410714D01*
X159803571Y-44446428D01*
X159732142Y-44482142D01*
X159446428Y-44482142D01*
X160303571Y-44410714D02*
X160232142Y-44375000D01*
X160196428Y-44339285D01*
X160160714Y-44267857D01*
X160160714Y-44232142D01*
X160196428Y-44160714D01*
X160232142Y-44125000D01*
X160303571Y-44089285D01*
X160446428Y-44089285D01*
X160517857Y-44125000D01*
X160553571Y-44160714D01*
X160589285Y-44232142D01*
X160589285Y-44267857D01*
X160553571Y-44339285D01*
X160517857Y-44375000D01*
X160446428Y-44410714D01*
X160303571Y-44410714D01*
X160232142Y-44446428D01*
X160196428Y-44482142D01*
X160160714Y-44553571D01*
X160160714Y-44696428D01*
X160196428Y-44767857D01*
X160232142Y-44803571D01*
X160303571Y-44839285D01*
X160446428Y-44839285D01*
X160517857Y-44803571D01*
X160553571Y-44767857D01*
X160589285Y-44696428D01*
X160589285Y-44553571D01*
X160553571Y-44482142D01*
X160517857Y-44446428D01*
X160446428Y-44410714D01*
X153839285Y-44839285D02*
X153410714Y-44839285D01*
X153625000Y-44839285D02*
X153625000Y-44089285D01*
X153553571Y-44196428D01*
X153482142Y-44267857D01*
X153410714Y-44303571D01*
X154160714Y-44839285D02*
X154160714Y-44089285D01*
X154589285Y-44839285D02*
X154267857Y-44410714D01*
X154589285Y-44089285D02*
X154160714Y-44517857D01*
%TO.C,R7*%
X159875000Y-49839285D02*
X159625000Y-49482142D01*
X159446428Y-49839285D02*
X159446428Y-49089285D01*
X159732142Y-49089285D01*
X159803571Y-49125000D01*
X159839285Y-49160714D01*
X159875000Y-49232142D01*
X159875000Y-49339285D01*
X159839285Y-49410714D01*
X159803571Y-49446428D01*
X159732142Y-49482142D01*
X159446428Y-49482142D01*
X160125000Y-49089285D02*
X160625000Y-49089285D01*
X160303571Y-49839285D01*
X153839285Y-49839285D02*
X153410714Y-49839285D01*
X153625000Y-49839285D02*
X153625000Y-49089285D01*
X153553571Y-49196428D01*
X153482142Y-49267857D01*
X153410714Y-49303571D01*
X154160714Y-49839285D02*
X154160714Y-49089285D01*
X154589285Y-49839285D02*
X154267857Y-49410714D01*
X154589285Y-49089285D02*
X154160714Y-49517857D01*
%TO.C,R6*%
X159875000Y-54839285D02*
X159625000Y-54482142D01*
X159446428Y-54839285D02*
X159446428Y-54089285D01*
X159732142Y-54089285D01*
X159803571Y-54125000D01*
X159839285Y-54160714D01*
X159875000Y-54232142D01*
X159875000Y-54339285D01*
X159839285Y-54410714D01*
X159803571Y-54446428D01*
X159732142Y-54482142D01*
X159446428Y-54482142D01*
X160517857Y-54089285D02*
X160375000Y-54089285D01*
X160303571Y-54125000D01*
X160267857Y-54160714D01*
X160196428Y-54267857D01*
X160160714Y-54410714D01*
X160160714Y-54696428D01*
X160196428Y-54767857D01*
X160232142Y-54803571D01*
X160303571Y-54839285D01*
X160446428Y-54839285D01*
X160517857Y-54803571D01*
X160553571Y-54767857D01*
X160589285Y-54696428D01*
X160589285Y-54517857D01*
X160553571Y-54446428D01*
X160517857Y-54410714D01*
X160446428Y-54375000D01*
X160303571Y-54375000D01*
X160232142Y-54410714D01*
X160196428Y-54446428D01*
X160160714Y-54517857D01*
X153839285Y-54839285D02*
X153410714Y-54839285D01*
X153625000Y-54839285D02*
X153625000Y-54089285D01*
X153553571Y-54196428D01*
X153482142Y-54267857D01*
X153410714Y-54303571D01*
X154160714Y-54839285D02*
X154160714Y-54089285D01*
X154589285Y-54839285D02*
X154267857Y-54410714D01*
X154589285Y-54089285D02*
X154160714Y-54517857D01*
%TO.C,R5*%
X159875000Y-59839285D02*
X159625000Y-59482142D01*
X159446428Y-59839285D02*
X159446428Y-59089285D01*
X159732142Y-59089285D01*
X159803571Y-59125000D01*
X159839285Y-59160714D01*
X159875000Y-59232142D01*
X159875000Y-59339285D01*
X159839285Y-59410714D01*
X159803571Y-59446428D01*
X159732142Y-59482142D01*
X159446428Y-59482142D01*
X160553571Y-59089285D02*
X160196428Y-59089285D01*
X160160714Y-59446428D01*
X160196428Y-59410714D01*
X160267857Y-59375000D01*
X160446428Y-59375000D01*
X160517857Y-59410714D01*
X160553571Y-59446428D01*
X160589285Y-59517857D01*
X160589285Y-59696428D01*
X160553571Y-59767857D01*
X160517857Y-59803571D01*
X160446428Y-59839285D01*
X160267857Y-59839285D01*
X160196428Y-59803571D01*
X160160714Y-59767857D01*
X153839285Y-59839285D02*
X153410714Y-59839285D01*
X153625000Y-59839285D02*
X153625000Y-59089285D01*
X153553571Y-59196428D01*
X153482142Y-59267857D01*
X153410714Y-59303571D01*
X154160714Y-59839285D02*
X154160714Y-59089285D01*
X154589285Y-59839285D02*
X154267857Y-59410714D01*
X154589285Y-59089285D02*
X154160714Y-59517857D01*
%TO.C,R4*%
X159875000Y-64839285D02*
X159625000Y-64482142D01*
X159446428Y-64839285D02*
X159446428Y-64089285D01*
X159732142Y-64089285D01*
X159803571Y-64125000D01*
X159839285Y-64160714D01*
X159875000Y-64232142D01*
X159875000Y-64339285D01*
X159839285Y-64410714D01*
X159803571Y-64446428D01*
X159732142Y-64482142D01*
X159446428Y-64482142D01*
X160517857Y-64339285D02*
X160517857Y-64839285D01*
X160339285Y-64053571D02*
X160160714Y-64589285D01*
X160625000Y-64589285D01*
X153839285Y-64839285D02*
X153410714Y-64839285D01*
X153625000Y-64839285D02*
X153625000Y-64089285D01*
X153553571Y-64196428D01*
X153482142Y-64267857D01*
X153410714Y-64303571D01*
X154160714Y-64839285D02*
X154160714Y-64089285D01*
X154589285Y-64839285D02*
X154267857Y-64410714D01*
X154589285Y-64089285D02*
X154160714Y-64517857D01*
%TO.C,R3*%
X159875000Y-69839285D02*
X159625000Y-69482142D01*
X159446428Y-69839285D02*
X159446428Y-69089285D01*
X159732142Y-69089285D01*
X159803571Y-69125000D01*
X159839285Y-69160714D01*
X159875000Y-69232142D01*
X159875000Y-69339285D01*
X159839285Y-69410714D01*
X159803571Y-69446428D01*
X159732142Y-69482142D01*
X159446428Y-69482142D01*
X160125000Y-69089285D02*
X160589285Y-69089285D01*
X160339285Y-69375000D01*
X160446428Y-69375000D01*
X160517857Y-69410714D01*
X160553571Y-69446428D01*
X160589285Y-69517857D01*
X160589285Y-69696428D01*
X160553571Y-69767857D01*
X160517857Y-69803571D01*
X160446428Y-69839285D01*
X160232142Y-69839285D01*
X160160714Y-69803571D01*
X160125000Y-69767857D01*
X153839285Y-69839285D02*
X153410714Y-69839285D01*
X153625000Y-69839285D02*
X153625000Y-69089285D01*
X153553571Y-69196428D01*
X153482142Y-69267857D01*
X153410714Y-69303571D01*
X154160714Y-69839285D02*
X154160714Y-69089285D01*
X154589285Y-69839285D02*
X154267857Y-69410714D01*
X154589285Y-69089285D02*
X154160714Y-69517857D01*
%TO.C,R2*%
X159875000Y-74839285D02*
X159625000Y-74482142D01*
X159446428Y-74839285D02*
X159446428Y-74089285D01*
X159732142Y-74089285D01*
X159803571Y-74125000D01*
X159839285Y-74160714D01*
X159875000Y-74232142D01*
X159875000Y-74339285D01*
X159839285Y-74410714D01*
X159803571Y-74446428D01*
X159732142Y-74482142D01*
X159446428Y-74482142D01*
X160160714Y-74160714D02*
X160196428Y-74125000D01*
X160267857Y-74089285D01*
X160446428Y-74089285D01*
X160517857Y-74125000D01*
X160553571Y-74160714D01*
X160589285Y-74232142D01*
X160589285Y-74303571D01*
X160553571Y-74410714D01*
X160125000Y-74839285D01*
X160589285Y-74839285D01*
X153839285Y-74839285D02*
X153410714Y-74839285D01*
X153625000Y-74839285D02*
X153625000Y-74089285D01*
X153553571Y-74196428D01*
X153482142Y-74267857D01*
X153410714Y-74303571D01*
X154160714Y-74839285D02*
X154160714Y-74089285D01*
X154589285Y-74839285D02*
X154267857Y-74410714D01*
X154589285Y-74089285D02*
X154160714Y-74517857D01*
%TO.C,R1*%
X159875000Y-79839285D02*
X159625000Y-79482142D01*
X159446428Y-79839285D02*
X159446428Y-79089285D01*
X159732142Y-79089285D01*
X159803571Y-79125000D01*
X159839285Y-79160714D01*
X159875000Y-79232142D01*
X159875000Y-79339285D01*
X159839285Y-79410714D01*
X159803571Y-79446428D01*
X159732142Y-79482142D01*
X159446428Y-79482142D01*
X160589285Y-79839285D02*
X160160714Y-79839285D01*
X160375000Y-79839285D02*
X160375000Y-79089285D01*
X160303571Y-79196428D01*
X160232142Y-79267857D01*
X160160714Y-79303571D01*
X153839285Y-79839285D02*
X153410714Y-79839285D01*
X153625000Y-79839285D02*
X153625000Y-79089285D01*
X153553571Y-79196428D01*
X153482142Y-79267857D01*
X153410714Y-79303571D01*
X154160714Y-79839285D02*
X154160714Y-79089285D01*
X154589285Y-79839285D02*
X154267857Y-79410714D01*
X154589285Y-79089285D02*
X154160714Y-79517857D01*
%TO.C,J5*%
X139322380Y-71833333D02*
X140036666Y-71833333D01*
X140179523Y-71880952D01*
X140274761Y-71976190D01*
X140322380Y-72119047D01*
X140322380Y-72214285D01*
X139322380Y-70880952D02*
X139322380Y-71357142D01*
X139798571Y-71404761D01*
X139750952Y-71357142D01*
X139703333Y-71261904D01*
X139703333Y-71023809D01*
X139750952Y-70928571D01*
X139798571Y-70880952D01*
X139893809Y-70833333D01*
X140131904Y-70833333D01*
X140227142Y-70880952D01*
X140274761Y-70928571D01*
X140322380Y-71023809D01*
X140322380Y-71261904D01*
X140274761Y-71357142D01*
X140227142Y-71404761D01*
%TO.C,J4*%
X124166666Y-64952380D02*
X124166666Y-65666666D01*
X124119047Y-65809523D01*
X124023809Y-65904761D01*
X123880952Y-65952380D01*
X123785714Y-65952380D01*
X125071428Y-65285714D02*
X125071428Y-65952380D01*
X124833333Y-64904761D02*
X124595238Y-65619047D01*
X125214285Y-65619047D01*
%TO.C,J3*%
X148250000Y-52919285D02*
X148250000Y-53455000D01*
X148214285Y-53562142D01*
X148142857Y-53633571D01*
X148035714Y-53669285D01*
X147964285Y-53669285D01*
X148535714Y-52919285D02*
X149000000Y-52919285D01*
X148750000Y-53205000D01*
X148857142Y-53205000D01*
X148928571Y-53240714D01*
X148964285Y-53276428D01*
X149000000Y-53347857D01*
X149000000Y-53526428D01*
X148964285Y-53597857D01*
X148928571Y-53633571D01*
X148857142Y-53669285D01*
X148642857Y-53669285D01*
X148571428Y-53633571D01*
X148535714Y-53597857D01*
X140428571Y-65452380D02*
X140095238Y-64976190D01*
X139857142Y-65452380D02*
X139857142Y-64452380D01*
X140238095Y-64452380D01*
X140333333Y-64500000D01*
X140380952Y-64547619D01*
X140428571Y-64642857D01*
X140428571Y-64785714D01*
X140380952Y-64880952D01*
X140333333Y-64928571D01*
X140238095Y-64976190D01*
X139857142Y-64976190D01*
X140857142Y-64928571D02*
X141190476Y-64928571D01*
X141333333Y-65452380D02*
X140857142Y-65452380D01*
X140857142Y-64452380D01*
X141333333Y-64452380D01*
X141761904Y-65452380D02*
X141761904Y-64452380D01*
X142000000Y-64452380D01*
X142142857Y-64500000D01*
X142238095Y-64595238D01*
X142285714Y-64690476D01*
X142333333Y-64880952D01*
X142333333Y-65023809D01*
X142285714Y-65214285D01*
X142238095Y-65309523D01*
X142142857Y-65404761D01*
X142000000Y-65452380D01*
X141761904Y-65452380D01*
X143476190Y-65404761D02*
X143619047Y-65452380D01*
X143857142Y-65452380D01*
X143952380Y-65404761D01*
X144000000Y-65357142D01*
X144047619Y-65261904D01*
X144047619Y-65166666D01*
X144000000Y-65071428D01*
X143952380Y-65023809D01*
X143857142Y-64976190D01*
X143666666Y-64928571D01*
X143571428Y-64880952D01*
X143523809Y-64833333D01*
X143476190Y-64738095D01*
X143476190Y-64642857D01*
X143523809Y-64547619D01*
X143571428Y-64500000D01*
X143666666Y-64452380D01*
X143904761Y-64452380D01*
X144047619Y-64500000D01*
X144333333Y-64452380D02*
X144904761Y-64452380D01*
X144619047Y-65452380D02*
X144619047Y-64452380D01*
X145809523Y-65452380D02*
X145476190Y-64976190D01*
X145238095Y-65452380D02*
X145238095Y-64452380D01*
X145619047Y-64452380D01*
X145714285Y-64500000D01*
X145761904Y-64547619D01*
X145809523Y-64642857D01*
X145809523Y-64785714D01*
X145761904Y-64880952D01*
X145714285Y-64928571D01*
X145619047Y-64976190D01*
X145238095Y-64976190D01*
X146238095Y-65452380D02*
X146238095Y-64452380D01*
X146714285Y-65452380D02*
X146714285Y-64452380D01*
X147095238Y-64452380D01*
X147190476Y-64500000D01*
X147238095Y-64547619D01*
X147285714Y-64642857D01*
X147285714Y-64785714D01*
X147238095Y-64880952D01*
X147190476Y-64928571D01*
X147095238Y-64976190D01*
X146714285Y-64976190D01*
X147714285Y-64928571D02*
X148047619Y-64928571D01*
X148190476Y-65452380D02*
X147714285Y-65452380D01*
X147714285Y-64452380D01*
X148190476Y-64452380D01*
X141238095Y-66571428D02*
X142000000Y-66571428D01*
X143000000Y-66952380D02*
X142428571Y-66952380D01*
X142714285Y-66952380D02*
X142714285Y-65952380D01*
X142619047Y-66095238D01*
X142523809Y-66190476D01*
X142428571Y-66238095D01*
X143380952Y-66047619D02*
X143428571Y-66000000D01*
X143523809Y-65952380D01*
X143761904Y-65952380D01*
X143857142Y-66000000D01*
X143904761Y-66047619D01*
X143952380Y-66142857D01*
X143952380Y-66238095D01*
X143904761Y-66380952D01*
X143333333Y-66952380D01*
X143952380Y-66952380D01*
X144238095Y-65952380D02*
X144571428Y-66952380D01*
X144904761Y-65952380D01*
X141238095Y-42571428D02*
X142000000Y-42571428D01*
X141619047Y-42952380D02*
X141619047Y-42190476D01*
X143000000Y-42952380D02*
X142428571Y-42952380D01*
X142714285Y-42952380D02*
X142714285Y-41952380D01*
X142619047Y-42095238D01*
X142523809Y-42190476D01*
X142428571Y-42238095D01*
X143380952Y-42047619D02*
X143428571Y-42000000D01*
X143523809Y-41952380D01*
X143761904Y-41952380D01*
X143857142Y-42000000D01*
X143904761Y-42047619D01*
X143952380Y-42142857D01*
X143952380Y-42238095D01*
X143904761Y-42380952D01*
X143333333Y-42952380D01*
X143952380Y-42952380D01*
X144238095Y-41952380D02*
X144571428Y-42952380D01*
X144904761Y-41952380D01*
%TO.C,J2*%
X171396666Y-64552380D02*
X171396666Y-65266666D01*
X171349047Y-65409523D01*
X171253809Y-65504761D01*
X171110952Y-65552380D01*
X171015714Y-65552380D01*
X171825238Y-64647619D02*
X171872857Y-64600000D01*
X171968095Y-64552380D01*
X172206190Y-64552380D01*
X172301428Y-64600000D01*
X172349047Y-64647619D01*
X172396666Y-64742857D01*
X172396666Y-64838095D01*
X172349047Y-64980952D01*
X171777619Y-65552380D01*
X172396666Y-65552380D01*
%TO.C,J1*%
X191250000Y-52919285D02*
X191250000Y-53455000D01*
X191214285Y-53562142D01*
X191142857Y-53633571D01*
X191035714Y-53669285D01*
X190964285Y-53669285D01*
X192000000Y-53669285D02*
X191571428Y-53669285D01*
X191785714Y-53669285D02*
X191785714Y-52919285D01*
X191714285Y-53026428D01*
X191642857Y-53097857D01*
X191571428Y-53133571D01*
X181928571Y-65452380D02*
X181595238Y-64976190D01*
X181357142Y-65452380D02*
X181357142Y-64452380D01*
X181738095Y-64452380D01*
X181833333Y-64500000D01*
X181880952Y-64547619D01*
X181928571Y-64642857D01*
X181928571Y-64785714D01*
X181880952Y-64880952D01*
X181833333Y-64928571D01*
X181738095Y-64976190D01*
X181357142Y-64976190D01*
X182357142Y-64928571D02*
X182690476Y-64928571D01*
X182833333Y-65452380D02*
X182357142Y-65452380D01*
X182357142Y-64452380D01*
X182833333Y-64452380D01*
X183261904Y-65452380D02*
X183261904Y-64452380D01*
X183500000Y-64452380D01*
X183642857Y-64500000D01*
X183738095Y-64595238D01*
X183785714Y-64690476D01*
X183833333Y-64880952D01*
X183833333Y-65023809D01*
X183785714Y-65214285D01*
X183738095Y-65309523D01*
X183642857Y-65404761D01*
X183500000Y-65452380D01*
X183261904Y-65452380D01*
X184976190Y-65404761D02*
X185119047Y-65452380D01*
X185357142Y-65452380D01*
X185452380Y-65404761D01*
X185500000Y-65357142D01*
X185547619Y-65261904D01*
X185547619Y-65166666D01*
X185500000Y-65071428D01*
X185452380Y-65023809D01*
X185357142Y-64976190D01*
X185166666Y-64928571D01*
X185071428Y-64880952D01*
X185023809Y-64833333D01*
X184976190Y-64738095D01*
X184976190Y-64642857D01*
X185023809Y-64547619D01*
X185071428Y-64500000D01*
X185166666Y-64452380D01*
X185404761Y-64452380D01*
X185547619Y-64500000D01*
X185833333Y-64452380D02*
X186404761Y-64452380D01*
X186119047Y-65452380D02*
X186119047Y-64452380D01*
X187309523Y-65452380D02*
X186976190Y-64976190D01*
X186738095Y-65452380D02*
X186738095Y-64452380D01*
X187119047Y-64452380D01*
X187214285Y-64500000D01*
X187261904Y-64547619D01*
X187309523Y-64642857D01*
X187309523Y-64785714D01*
X187261904Y-64880952D01*
X187214285Y-64928571D01*
X187119047Y-64976190D01*
X186738095Y-64976190D01*
X187738095Y-65452380D02*
X187738095Y-64452380D01*
X188214285Y-65452380D02*
X188214285Y-64452380D01*
X188595238Y-64452380D01*
X188690476Y-64500000D01*
X188738095Y-64547619D01*
X188785714Y-64642857D01*
X188785714Y-64785714D01*
X188738095Y-64880952D01*
X188690476Y-64928571D01*
X188595238Y-64976190D01*
X188214285Y-64976190D01*
X189214285Y-64928571D02*
X189547619Y-64928571D01*
X189690476Y-65452380D02*
X189214285Y-65452380D01*
X189214285Y-64452380D01*
X189690476Y-64452380D01*
X184238095Y-66571428D02*
X185000000Y-66571428D01*
X186000000Y-66952380D02*
X185428571Y-66952380D01*
X185714285Y-66952380D02*
X185714285Y-65952380D01*
X185619047Y-66095238D01*
X185523809Y-66190476D01*
X185428571Y-66238095D01*
X186380952Y-66047619D02*
X186428571Y-66000000D01*
X186523809Y-65952380D01*
X186761904Y-65952380D01*
X186857142Y-66000000D01*
X186904761Y-66047619D01*
X186952380Y-66142857D01*
X186952380Y-66238095D01*
X186904761Y-66380952D01*
X186333333Y-66952380D01*
X186952380Y-66952380D01*
X187238095Y-65952380D02*
X187571428Y-66952380D01*
X187904761Y-65952380D01*
X184238095Y-42571428D02*
X185000000Y-42571428D01*
X184619047Y-42952380D02*
X184619047Y-42190476D01*
X186000000Y-42952380D02*
X185428571Y-42952380D01*
X185714285Y-42952380D02*
X185714285Y-41952380D01*
X185619047Y-42095238D01*
X185523809Y-42190476D01*
X185428571Y-42238095D01*
X186380952Y-42047619D02*
X186428571Y-42000000D01*
X186523809Y-41952380D01*
X186761904Y-41952380D01*
X186857142Y-42000000D01*
X186904761Y-42047619D01*
X186952380Y-42142857D01*
X186952380Y-42238095D01*
X186904761Y-42380952D01*
X186333333Y-42952380D01*
X186952380Y-42952380D01*
X187238095Y-41952380D02*
X187571428Y-42952380D01*
X187904761Y-41952380D01*
%TO.C,C1*%
X88875000Y-72267857D02*
X88839285Y-72303571D01*
X88732142Y-72339285D01*
X88660714Y-72339285D01*
X88553571Y-72303571D01*
X88482142Y-72232142D01*
X88446428Y-72160714D01*
X88410714Y-72017857D01*
X88410714Y-71910714D01*
X88446428Y-71767857D01*
X88482142Y-71696428D01*
X88553571Y-71625000D01*
X88660714Y-71589285D01*
X88732142Y-71589285D01*
X88839285Y-71625000D01*
X88875000Y-71660714D01*
X89589285Y-72339285D02*
X89160714Y-72339285D01*
X89375000Y-72339285D02*
X89375000Y-71589285D01*
X89303571Y-71696428D01*
X89232142Y-71767857D01*
X89160714Y-71803571D01*
X87660714Y-73839285D02*
X87232142Y-73839285D01*
X87446428Y-73839285D02*
X87446428Y-73089285D01*
X87375000Y-73196428D01*
X87303571Y-73267857D01*
X87232142Y-73303571D01*
X88125000Y-73089285D02*
X88196428Y-73089285D01*
X88267857Y-73125000D01*
X88303571Y-73160714D01*
X88339285Y-73232142D01*
X88375000Y-73375000D01*
X88375000Y-73553571D01*
X88339285Y-73696428D01*
X88303571Y-73767857D01*
X88267857Y-73803571D01*
X88196428Y-73839285D01*
X88125000Y-73839285D01*
X88053571Y-73803571D01*
X88017857Y-73767857D01*
X87982142Y-73696428D01*
X87946428Y-73553571D01*
X87946428Y-73375000D01*
X87982142Y-73232142D01*
X88017857Y-73160714D01*
X88053571Y-73125000D01*
X88125000Y-73089285D01*
X88839285Y-73089285D02*
X88910714Y-73089285D01*
X88982142Y-73125000D01*
X89017857Y-73160714D01*
X89053571Y-73232142D01*
X89089285Y-73375000D01*
X89089285Y-73553571D01*
X89053571Y-73696428D01*
X89017857Y-73767857D01*
X88982142Y-73803571D01*
X88910714Y-73839285D01*
X88839285Y-73839285D01*
X88767857Y-73803571D01*
X88732142Y-73767857D01*
X88696428Y-73696428D01*
X88660714Y-73553571D01*
X88660714Y-73375000D01*
X88696428Y-73232142D01*
X88732142Y-73160714D01*
X88767857Y-73125000D01*
X88839285Y-73089285D01*
X89410714Y-73339285D02*
X89410714Y-73839285D01*
X89410714Y-73410714D02*
X89446428Y-73375000D01*
X89517857Y-73339285D01*
X89625000Y-73339285D01*
X89696428Y-73375000D01*
X89732142Y-73446428D01*
X89732142Y-73839285D01*
%TO.C,A1*%
X75844285Y-84205000D02*
X76201428Y-84205000D01*
X75772857Y-84419285D02*
X76022857Y-83669285D01*
X76272857Y-84419285D01*
X76915714Y-84419285D02*
X76487142Y-84419285D01*
X76701428Y-84419285D02*
X76701428Y-83669285D01*
X76630000Y-83776428D01*
X76558571Y-83847857D01*
X76487142Y-83883571D01*
X70946428Y-38612000D02*
X71303571Y-38612000D01*
X70875000Y-38826285D02*
X71125000Y-38076285D01*
X71375000Y-38826285D01*
X71625000Y-38826285D02*
X71625000Y-38326285D01*
X71625000Y-38469142D02*
X71660714Y-38397714D01*
X71696428Y-38362000D01*
X71767857Y-38326285D01*
X71839285Y-38326285D01*
X72410714Y-38826285D02*
X72410714Y-38076285D01*
X72410714Y-38790571D02*
X72339285Y-38826285D01*
X72196428Y-38826285D01*
X72125000Y-38790571D01*
X72089285Y-38754857D01*
X72053571Y-38683428D01*
X72053571Y-38469142D01*
X72089285Y-38397714D01*
X72125000Y-38362000D01*
X72196428Y-38326285D01*
X72339285Y-38326285D01*
X72410714Y-38362000D01*
X73089285Y-38326285D02*
X73089285Y-38826285D01*
X72767857Y-38326285D02*
X72767857Y-38719142D01*
X72803571Y-38790571D01*
X72875000Y-38826285D01*
X72982142Y-38826285D01*
X73053571Y-38790571D01*
X73089285Y-38754857D01*
X73446428Y-38826285D02*
X73446428Y-38326285D01*
X73446428Y-38076285D02*
X73410714Y-38112000D01*
X73446428Y-38147714D01*
X73482142Y-38112000D01*
X73446428Y-38076285D01*
X73446428Y-38147714D01*
X73803571Y-38326285D02*
X73803571Y-38826285D01*
X73803571Y-38397714D02*
X73839285Y-38362000D01*
X73910714Y-38326285D01*
X74017857Y-38326285D01*
X74089285Y-38362000D01*
X74125000Y-38433428D01*
X74125000Y-38826285D01*
X74589285Y-38826285D02*
X74517857Y-38790571D01*
X74482142Y-38754857D01*
X74446428Y-38683428D01*
X74446428Y-38469142D01*
X74482142Y-38397714D01*
X74517857Y-38362000D01*
X74589285Y-38326285D01*
X74696428Y-38326285D01*
X74767857Y-38362000D01*
X74803571Y-38397714D01*
X74839285Y-38469142D01*
X74839285Y-38683428D01*
X74803571Y-38754857D01*
X74767857Y-38790571D01*
X74696428Y-38826285D01*
X74589285Y-38826285D01*
X74982142Y-38897714D02*
X75553571Y-38897714D01*
X75732142Y-38826285D02*
X75732142Y-38076285D01*
X76160714Y-38826285D01*
X76160714Y-38076285D01*
X76839285Y-38826285D02*
X76839285Y-38433428D01*
X76803571Y-38362000D01*
X76732142Y-38326285D01*
X76589285Y-38326285D01*
X76517857Y-38362000D01*
X76839285Y-38790571D02*
X76767857Y-38826285D01*
X76589285Y-38826285D01*
X76517857Y-38790571D01*
X76482142Y-38719142D01*
X76482142Y-38647714D01*
X76517857Y-38576285D01*
X76589285Y-38540571D01*
X76767857Y-38540571D01*
X76839285Y-38504857D01*
X77196428Y-38326285D02*
X77196428Y-38826285D01*
X77196428Y-38397714D02*
X77232142Y-38362000D01*
X77303571Y-38326285D01*
X77410714Y-38326285D01*
X77482142Y-38362000D01*
X77517857Y-38433428D01*
X77517857Y-38826285D01*
X77982142Y-38826285D02*
X77910714Y-38790571D01*
X77875000Y-38754857D01*
X77839285Y-38683428D01*
X77839285Y-38469142D01*
X77875000Y-38397714D01*
X77910714Y-38362000D01*
X77982142Y-38326285D01*
X78089285Y-38326285D01*
X78160714Y-38362000D01*
X78196428Y-38397714D01*
X78232142Y-38469142D01*
X78232142Y-38683428D01*
X78196428Y-38754857D01*
X78160714Y-38790571D01*
X78089285Y-38826285D01*
X77982142Y-38826285D01*
X78375000Y-38897714D02*
X78946428Y-38897714D01*
X79053571Y-38326285D02*
X79232142Y-38826285D01*
X79410714Y-38326285D01*
X79625000Y-38076285D02*
X80089285Y-38076285D01*
X79839285Y-38362000D01*
X79946428Y-38362000D01*
X80017857Y-38397714D01*
X80053571Y-38433428D01*
X80089285Y-38504857D01*
X80089285Y-38683428D01*
X80053571Y-38754857D01*
X80017857Y-38790571D01*
X79946428Y-38826285D01*
X79732142Y-38826285D01*
X79660714Y-38790571D01*
X79625000Y-38754857D01*
X80410714Y-38754857D02*
X80446428Y-38790571D01*
X80410714Y-38826285D01*
X80375000Y-38790571D01*
X80410714Y-38754857D01*
X80410714Y-38826285D01*
X80696428Y-38826285D02*
X81089285Y-38326285D01*
X80696428Y-38326285D02*
X81089285Y-38826285D01*
%TD*%
M02*
