M48
; DRILL file {KiCad 5.1.6-c6e7f7d~86~ubuntu18.04.1} date Wed Aug  5 17:02:10 2020
; FORMAT={-:-/ absolute / inch / decimal}
; #@! TF.CreationDate,2020-08-05T17:02:10-04:00
; #@! TF.GenerationSoftware,Kicad,Pcbnew,5.1.6-c6e7f7d~86~ubuntu18.04.1
; #@! TF.FileFunction,Plated,1,2,PTH
FMAT,2
INCH
T1C0.0315
T2C0.0394
T3C0.0400
%
G90
G05
T1
X6.0386Y-1.8504
X6.3386Y-1.8504
X4.1732Y-2.8346
X4.4732Y-2.8346
X4.1732Y-1.4567
X4.4732Y-1.4567
X4.1732Y-2.0472
X4.4732Y-2.0472
X6.0386Y-3.0315
X6.3386Y-3.0315
X2.7071Y-1.7102
X2.7071Y-1.8102
X2.7071Y-1.9102
X2.7071Y-2.0102
X2.7071Y-2.1102
X2.7071Y-2.2102
X2.7071Y-2.3102
X2.7071Y-2.4102
X2.7071Y-2.5102
X2.7071Y-2.6102
X2.7071Y-2.7102
X2.7071Y-2.8102
X2.7071Y-2.9102
X2.7071Y-3.0102
X2.7071Y-3.1102
X3.3071Y-1.7102
X3.3071Y-1.8102
X3.3071Y-1.9102
X3.3071Y-2.0102
X3.3071Y-2.1102
X3.3071Y-2.2102
X3.3071Y-2.3102
X3.3071Y-2.4102
X3.3071Y-2.5102
X3.3071Y-2.6102
X3.3071Y-2.7102
X3.3071Y-2.8102
X3.3071Y-2.9102
X3.3071Y-3.0102
X3.3071Y-3.1102
X6.0386Y-2.2441
X6.3386Y-2.2441
X4.1732Y-2.2441
X4.4732Y-2.2441
X6.0386Y-1.4567
X6.3386Y-1.4567
X3.5976Y-2.0165
X3.5976Y-2.1165
X3.5976Y-2.2165
X3.5976Y-2.3165
X3.5976Y-2.4165
X3.5976Y-2.5165
X3.5976Y-2.6165
X3.5976Y-2.7165
X3.8976Y-2.0165
X3.8976Y-2.1165
X3.8976Y-2.2165
X3.8976Y-2.3165
X3.8976Y-2.4165
X3.8976Y-2.5165
X3.8976Y-2.6165
X3.8976Y-2.7165
X4.1732Y-2.6378
X4.4732Y-2.6378
X4.1732Y-1.6535
X4.4732Y-1.6535
X6.0386Y-2.0472
X6.3386Y-2.0472
X4.1732Y-1.8504
X4.4732Y-1.8504
X6.0386Y-2.4409
X6.3386Y-2.4409
X6.0386Y-2.6378
X6.3386Y-2.6378
X6.0386Y-2.8346
X6.3386Y-2.8346
X3.6024Y-2.874
X3.7008Y-2.874
X4.1732Y-2.4409
X4.4732Y-2.4409
X6.0386Y-1.6535
X6.3386Y-1.6535
T2
X5.0976Y-2.815
X5.1976Y-2.815
X5.2976Y-2.815
X5.3976Y-2.815
X5.0181Y-1.6228
X5.0181Y-1.7228
X5.0181Y-1.8228
X5.0181Y-1.9228
X5.0181Y-2.0228
X5.0181Y-2.1228
X5.0181Y-2.2228
X5.0181Y-2.3228
X5.1181Y-1.6228
X5.1181Y-1.7228
X5.1181Y-1.8228
X5.1181Y-1.9228
X5.1181Y-2.0228
X5.1181Y-2.1228
X5.1181Y-2.2228
X5.1181Y-2.3228
X6.711Y-1.6228
X6.711Y-1.7228
X6.711Y-1.8228
X6.711Y-1.9228
X6.711Y-2.0228
X6.711Y-2.1228
X6.711Y-2.2228
X6.711Y-2.3228
X6.811Y-1.6228
X6.811Y-1.7228
X6.811Y-1.8228
X6.811Y-1.9228
X6.811Y-2.0228
X6.811Y-2.1228
X6.811Y-2.2228
X6.811Y-2.3228
T3
X5.5693Y-1.9228
X5.5693Y-2.0228
X5.5693Y-2.1228
X5.5693Y-2.2228
X5.5693Y-2.3228
X5.6693Y-1.9228
X5.6693Y-2.0228
X5.6693Y-2.1228
X5.6693Y-2.2228
X5.6693Y-2.3228
X7.2622Y-1.9228
X7.2622Y-2.0228
X7.2622Y-2.1228
X7.2622Y-2.2228
X7.2622Y-2.3228
X7.3622Y-1.9228
X7.3622Y-2.0228
X7.3622Y-2.1228
X7.3622Y-2.2228
X7.3622Y-2.3228
T0
M30
